<svg xmlns="http://www.w3.org/2000/svg" viewBox="0 0 211.27 211.27"><defs><style>.cls-1{fill:#1d1d1b;stroke:#1d1d1b;stroke-miterlimit:10;stroke-width:0.75px;}.cls-2{fill:#fff;}</style></defs><title>pinterest logo</title><g id="Layer_2" data-name="Layer 2"><g id="Layer_1-2" data-name="Layer 1"><circle class="cls-1" cx="105.64" cy="105.64" r="105.26"/><path class="cls-2" d="M76,185.73S89.29,173,91.54,162.48,99,132.73,99,132.73s12.25,20.75,42.5,5.75,48.75-98.5-25.75-105c0,0-77.5-3.25-63,73.12,0,0,10,17.88,17,14.88s1.5-2.5,3-6.5l1.5-4s-28.61-49.5,35.2-63c0,0,50.3,3,33.8,54,0,0-10.8,41.5-37.65,19.5a18,18,0,0,1,0-14.88c3.65-7.87,16.9-40.12-6.1-39.87s-13,36.25-13,36.25L76,149S71.29,162,76,185.73Z"/><path class="cls-2" d="M104.81,49.13a56.27,56.27,0,0,1,15.82.2c3.15.5,4.51-4.32,1.33-4.82a60.84,60.84,0,0,0-17.15-.38c-3.15.39-3.19,5.39,0,5Z"/></g></g></svg>