<svg xmlns="http://www.w3.org/2000/svg" viewBox="0 0 179.58 143.88"><defs><style>.cls-1{fill:#191918;stroke:#1d1d1b;stroke-miterlimit:10;}</style></defs><title>twitter</title><g id="Layer_2" data-name="Layer 2"><g id="Layer_1-2" data-name="Layer 1"><path class="cls-1" d="M88.69,44.49s-3-68.33,61.66-34.67c0,0,18-2.66,23.67-7,0,0-8.67,17.68-14.67,19.68,0,0,18.67-3.34,19.67-6s-11.33,16.33-17.67,18.67c0,0-10.33,155-159,94,0,0,42-1.34,52-15,0,0-29-6.67-33.66-26.34,0,0,13.33,1,16.33-1.33,0,0-31.33-8.67-29-36,0,0,12.33,6.33,16.33,4,0,0-25.33-18.67-11.66-48.67C12.69,5.82,46.69,45.49,88.69,44.49Z"/></g></g></svg>