<svg xmlns="http://www.w3.org/2000/svg" viewBox="0 0 62.93 39.08"><defs><style>.cls-1{fill:none;stroke-width:0.57px;}.cls-1,.cls-2{stroke:#1d1d1b;stroke-miterlimit:10;}.cls-2{fill:#6300ff;stroke-width:4.05px;}.cls-3{fill:#1d1d1b;}</style></defs><title>behance</title><g id="Layer_2" data-name="Layer 2"><g id="Layer_1-2" data-name="Layer 1"><path class="cls-1" d="M32.57,27s1.81,8.12-8.88,10.89H.29V.29H23.88C31.33,2.67,31.33,9,31.33,9s1.14,5.44-5.45,8.79C25.88,17.77,32.43,18.48,32.57,27Z"/><path class="cls-1" d="M20,15.76c6.88-5.83-.43-9.31-.43-9.31H8.69v9.31Z"/><path class="cls-1" d="M20.25,31.76c9.93-5.88,0-10.46,0-10.46H8.69V31.76Z"/><path class="cls-1" d="M41.93,21.3H54.61S53.39,15,48.27,15.16,41.93,21.3,41.93,21.3Z"/><path class="cls-1" d="M48.27,10.32s-11.78.09-13.69,11.46c0,0-3.11,16,13.69,16.95,0,0,11.07,1.43,13.5-9v-.17h-7a6.18,6.18,0,0,1-6.52,3.9c-5.12-.36-6.56-5.87-6.34-7.45h20.7S63.71,11.06,48.27,10.32Z"/><rect class="cls-2" x="39.71" y="2.7" width="16.48" height="3.75"/><path class="cls-3" d="M3.05,5.65c4.94.66,9.52-.48,14.35-.28,3.62.15,9.14,2.65,6.21,7-1.35,2-4,3.52-3.78,6.38.33,3.9,6,4.48,5.35,9.15-.76,5.25-9,4.68-12.85,4.45-1.66-.1-4.31.38-5.16-.79s0-6.43,0-8c0-5.32.67-11,0-16.32C6.93,4.92,5.89,3.33,3.39,3.3A2.65,2.65,0,0,0,.81,5.88c-.92,7.72,1.5,15.3.69,23-.35,3.3,4.81,3.27,5.16,0,.8-7.72-1.61-15.3-.69-23L3.39,8.46C1.11,8.43,2,28.12,2,30.56c.06,3.95,1,6.79,5.43,6.88,7.6.15,23.33,1.5,22.85-10.2a12.64,12.64,0,0,0-1.59-5.66c-.55-1-3.32-3.28-3.35-3.75s3.64-2.94,4.07-4c.67-1.71.07-4.16-.3-5.86C26.58-3.49,11.32,1.6,3.05.49-.22.05-.19,5.22,3.05,5.65Z"/><path class="cls-3" d="M6.9,21.21q7.38-.42,14.76-.21c3.32.09,3.32-5.06,0-5.16q-7.38-.19-14.76.21c-3.3.19-3.32,5.35,0,5.16Z"/><path class="cls-3" d="M8.75,16.91C8,13.15,8.67,9.49,8.3,5.73L3.5,7c.53.87.11,2.6.09,3.57,0,1.5,0,3,.09,4.48.13,3.31,5.28,3.33,5.16,0-.09-2.09-.12-4.17,0-6.27A7.11,7.11,0,0,0,8,4.43c-1.24-2-5.07-1.38-4.8,1.3C3.36,7.88,3,10,3.08,12.17a38.1,38.1,0,0,0,.69,6.11c.62,3.26,5.59,1.88,5-1.37Z"/><path class="cls-3" d="M4.07,2.43l-.75-.08L5.81,4.24l-.27-.71C4.56,1,.4,1.11.47,4.22l.17,7.09,5.07-.69c-1.95-6.91,6.86-5,10.67-4.76C20,6.08,25.1,8,22.85,12.48c-1.46,3,3,5.59,4.46,2.61,1.76-3.57,2-6.2-.45-9.42C24,1.81,21.93,1,17.21.75,13,.49,7.39-1,3.72,1.76.41,4.23-.34,8.19.74,12c.77,2.76,5.13,2.28,5.06-.68L5.63,4.22.57,4.91l.27.7A2.72,2.72,0,0,0,3.32,7.5l.75.09c3.3.36,3.27-4.8,0-5.16Z"/><path class="cls-3" d="M3.46,20.31a90.2,90.2,0,0,0,.1,12.84c.2,3.3,5.36,3.32,5.16,0a90.2,90.2,0,0,1-.1-12.84c.27-3.31-4.89-3.29-5.16,0Z"/><path class="cls-3" d="M.27,12Q.39,23.62.09,35.22c-.09,3.32,5.07,3.32,5.16,0Q5.54,23.63,5.43,12C5.4,8.69.24,8.69.27,12Z"/><path class="cls-3" d="M27.89,33.07c.07-1.77,1.12-3.22,1.36-5a2.68,2.68,0,0,0-1.8-3.18c-1.2-.33-3,.42-3.17,1.8a10.28,10.28,0,0,1-.88,2.82,9.72,9.72,0,0,0-.67,3.54c-.13,3.32,5,3.31,5.16,0Z"/><path class="cls-3" d="M25.47,34.33a1.4,1.4,0,0,1-.29.52c-.16.18-.17.2,0,0l.3-.32.66-.71a2.58,2.58,0,1,0-3.65-3.64,6.38,6.38,0,0,0-2,2.73,2.62,2.62,0,0,0,1.8,3.17,2.59,2.59,0,0,0,3.17-1.8Z"/><path class="cls-3" d="M24.64,37.53c4.09-1.18,7.64-4.37,7.86-8.79.21-4.26-1.58-8.69-5.62-10.53l-2,4.72c1.77.54,2.26,2.32,2.42,4,.31,3.27,5.47,3.3,5.16,0-.4-4.11-2-7.67-6.21-9-2.73-.84-4.69,3.49-2,4.72,2.18,1,3,2.83,3.08,5.19s-1.8,4-4.08,4.69c-3.18.92-1.83,5.9,1.37,5Z"/><path class="cls-3" d="M31.22,9.79c.28-2.72-1-4.86-2.92-6.68a2.62,2.62,0,0,0-2.51-.67l-.17.05H27c.25.29.35.32.32.09l-4,3.13a10.45,10.45,0,0,0,1.43,1.13c2.11,1.41,5-1.42,3.53-3.53C27.38,2.09,26.63,2,25.39,1.45A10.87,10.87,0,0,0,23.08.36l-.69,5.07c.18,0,.27.24.6.52a3.15,3.15,0,0,0,1.63.78,2.66,2.66,0,0,0,3.17-1.8A2.59,2.59,0,0,0,26,1.76c.27,0-.1-.24-.17-.3A5.7,5.7,0,0,0,24.64.69,5.1,5.1,0,0,0,22.39.27,2.57,2.57,0,0,0,19.86,2.5,2.54,2.54,0,0,0,21.7,5.33,6.51,6.51,0,0,1,22.76,6c.51.29,1.34.35,1.74.62l-.92-.93.19.27,3.52-3.52a1.1,1.1,0,0,1-.38-.33C24.72,0,21.63,2.6,22.86,5.18a3.85,3.85,0,0,0,4.3,2.24l-2.51-.67c1,1,1.56,1.62,1.42,3a2.58,2.58,0,0,0,5.15,0Z"/><path class="cls-3" d="M21.63,16.53c-.14-.33-.32-.85.13-1,.68-.27.39-1.37-.3-1.1a1.69,1.69,0,0,0-1.06,1,2.31,2.31,0,0,0,.24,1.68c.29.67,1.28.09,1-.58Z"/><path class="cls-3" d="M11.2,21.26c2.44.07,4.9.09,7.34.22,3.37.17,4.71,1.86,6.49,4.57.4.62,1.39.05,1-.57-1.22-1.86-2.59-4.08-4.82-4.83-3-1-6.9-.44-10-.54a.58.58,0,0,0,0,1.15Z"/><path class="cls-3" d="M2,2.62A3.08,3.08,0,0,0,1.25.41a.58.58,0,0,0-1,.41L.43,2.88c0,.51.81.86,1.07.29A4.66,4.66,0,0,0,1.89,2c0-.12,0-.42.05-.51s.83-.05,1-.06L7,1.3A.58.58,0,0,0,7,.15a34.09,34.09,0,0,0-5.26.2C.57.57.9,1.73.51,2.59l1.07.29L1.41.82l-1,.4a1.9,1.9,0,0,1,.39,1.4A.58.58,0,0,0,2,2.62Z"/><path class="cls-3" d="M22.78,1.81A3.49,3.49,0,0,1,21.57.93C21.26.58,20.91.22,20.4.41c-.68.26-.38,1.37.31,1.11-.21.08.11.29.21.4a3.65,3.65,0,0,0,.36.31,4.22,4.22,0,0,0,.93.57c.66.31,1.24-.68.57-1Z"/><path class="cls-3" d="M28,3.26C28.18,2,26.38,1.18,25.38,1c-.72-.15-1,1-.3,1.1.48.1,1.87.54,1.79,1.19s1.05.72,1.14,0Z"/><path class="cls-3" d="M25.11,17.67a1.89,1.89,0,0,0,1.51-.31c.53-.37.92-.84,1.46-1.21a3.63,3.63,0,0,0,.69-.55,10,10,0,0,0,2.61-5.39c.05-.65-1-.76-1.13-.15a13.73,13.73,0,0,1-2.42,5c-.44.58.36,1.39.81.81a15,15,0,0,0,2.72-5.46l-1.13-.16a8.31,8.31,0,0,1-1.92,4,6.69,6.69,0,0,1-1.26,1.18c-.39.33-1,1.24-1.63,1.14s-1,1-.31,1.11Z"/><path class="cls-3" d="M8.05,32.83a95.35,95.35,0,0,0,14.83.07c.73,0,.74-1.2,0-1.15a94.14,94.14,0,0,1-14.83-.07c-.74-.06-.73,1.09,0,1.15Z"/><path class="cls-3" d="M20.94,32.64a1.41,1.41,0,0,0,.58-.09c.68-.27.39-1.38-.3-1.11a.39.39,0,0,1-.28,0,.58.58,0,0,0,0,1.15Z"/><path class="cls-3" d="M8.7,7c2.6-.23,5.21-.44,7.82-.47,1.62,0,3.27,0,4.57,1.22s2.12,3.43,1.06,5c-.74,1.08,1,2.09,1.74,1,1.76-2.58.3-6.38-2.1-8C18.3,3.38,12.6,4.68,8.7,5c-1.29.11-1.3,2.13,0,2Z"/><path class="cls-3" d="M14.42,6.22a28.6,28.6,0,0,1,4.14.27c.73.11,1-1,.31-1.1a31.5,31.5,0,0,0-4.45-.32.58.58,0,0,0,0,1.15Z"/><path class="cls-3" d="M.89,38c7.65-.29,15.5-1,23.07-.35L23.8,36.5c-2,.39-4.13-.32-6.2.11a.58.58,0,0,0,0,1.11,4.31,4.31,0,0,0,2.28.14c.73-.07.75-1.17,0-1.15q-6.13.21-12.26.09a.57.57,0,0,0,0,1.14q6.14.12,12.26-.08V36.71l-2-.1v1.11c2-.42,4.14.28,6.2-.12.67-.13.45-1.07-.15-1.12-7.58-.62-15.4.05-23.07.35C.16,36.86.15,38,.89,38Z"/><path class="cls-3" d="M53.1,24a.86.86,0,0,0,0-1.72.86.86,0,0,0,0,1.72Z"/><path class="cls-3" d="M58.27,22l-14,.9c-1.09.07-1.11,1.75,0,1.72,3.28-.09,6.55.17,9.82,0,1.88-.07,4.83,0,6.43-1,2.47-1.51-.5-5.28-1.87-6.61a.86.86,0,0,0-1.35,1,19.86,19.86,0,0,1,1.83,4.69l1.57-.67a19.82,19.82,0,0,0-3.41-5.34c-.67-.76-1.79.21-1.35,1L58.66,23l1.49-.87a39.62,39.62,0,0,1-2.35-4.23c-.48-1-2-.12-1.48.87A39.55,39.55,0,0,0,58.66,23a.86.86,0,0,0,1.49-.87L57.43,17,56.08,18a18.37,18.37,0,0,1,3.15,5c.39.92,1.8.25,1.57-.66a21.32,21.32,0,0,0-2-5.1l-1.35,1.05A6.61,6.61,0,0,1,59,20.15c.92,1,.83,1.72-.29,2.25-.86.87-3.94.51-5.2.54-3.07.06-6.13-.15-9.21-.06V24.6l14-.91c1.1-.07,1.1-1.79,0-1.71Z"/><path class="cls-3" d="M60.43,20.34a11.85,11.85,0,0,0-3.92-7c-2.78-2.5-6.38,1.24-4,4,.79,1,1.6,1.92,2.39,2.89.34.43,1.39,1.5,1.17,2l2-2c.27,0,.18,0-.26,0-3.69-.1-3.69,5.63,0,5.73,1.66,0,3.21-.45,3.78-2.19a5.74,5.74,0,0,0-.2-3.79c-.94-2.56-3.12-4.62-4.83-6.69l-4,4a7,7,0,0,1,2.44,4.43c.22,1.54,2.17,2.38,3.53,2a3,3,0,0,0,2-3.53Z"/><path class="cls-3" d="M34.88,24.33c.7,6,2.71,11.24,8.61,13.52a14.93,14.93,0,0,0,16.25-3.66c2.49-2.71-1.55-6.77-4.05-4a9.15,9.15,0,0,1-10.31,2.27c-3.15-1.31-4.38-4.8-4.77-8.08-.42-3.62-6.15-3.66-5.73,0Z"/><path class="cls-3" d="M40.87,25.33a12.16,12.16,0,0,1,2.44-7.52c2.08-3.06-2.88-5.93-5-2.9a17.3,17.3,0,0,0-3.22,10.42c.19,3.67,5.92,3.69,5.73,0Z"/><path class="cls-3" d="M55.15,15.62c-.89-2.64-4.32-3.9-6.9-4.07a7.6,7.6,0,0,0-7.36,3.93,1.46,1.46,0,0,0,1.62,2.11A12.72,12.72,0,0,0,45.74,16c.28-.18,4.61-2.08,5-.8l2.1-1.62a3.4,3.4,0,0,0-1.55-.66c-1.8-.4-2.57,2.36-.77,2.76l.88.37a1.44,1.44,0,0,0,2.1-1.61c-.77-2.27-2.75-2.34-4.86-2.32a7.08,7.08,0,0,0-3.07.4c-1.41.69-2.28,1.8-3.87,2.28l1.62,2.11a4.69,4.69,0,0,1,4.15-2.54c1.2,0,4.38.56,4.86,2,.58,1.74,3.35,1,2.77-.77Z"/><path class="cls-3" d="M39.79,25.51a71.06,71.06,0,0,1,9.11.2c3.09.14,6.07-.46,9.15-.53,1.84,0,1.85-2.9,0-2.86-3.08.06-6.06.66-9.15.53a71.06,71.06,0,0,0-9.11-.21c-1.83.16-1.84,3,0,2.87Z"/><path class="cls-3" d="M40.79,24.31l16.61.47c1.84,0,1.84-2.81,0-2.87l-16.61-.47c-1.85-.05-1.85,2.82,0,2.87Z"/><path class="cls-3" d="M42.44,22a2,2,0,0,1-.25-1.91,1.47,1.47,0,0,0-.51-2,1.45,1.45,0,0,0-2,.51,4.89,4.89,0,0,0,.25,4.8c1,1.54,3.48.11,2.47-1.44Z"/><path class="cls-3" d="M40.9,33.2C39,32,38.69,30.38,38.27,28.53c-.31-1.32-2.54-1.42-2.77,0a5.72,5.72,0,0,0,0,2.47l2.62-1.1c-1.73-3.12-.9-9.13,1-11.79.94-1.34,12.08-8.61,12.33-3,.08,1.84,2.94,1.85,2.86,0-.34-7.64-11-4.15-14.62-1.56-5.09,3.63-7.07,12.3-4,17.83.83,1.49,2.92.43,2.62-1.1l0-.95H35.5c.63,2.73,1.52,4.88,4,6.39,1.58,1,3-1.51,1.45-2.48Z"/><path class="cls-3" d="M50.17,12.23h-.43a1.43,1.43,0,1,0,0,2.86h.43a1.43,1.43,0,0,0,0-2.86Z"/><path class="cls-3" d="M57.44,32.07a1.69,1.69,0,0,0-.12-2,1.74,1.74,0,0,0-2-.54,2.06,2.06,0,0,0-1.23,1.19,8.36,8.36,0,0,0-.36.87,1.92,1.92,0,0,0-.09.32c-.09.45-.1-.1.38-.33l.73-.19.2,0,.63.37-.06-.06.37.64v-.08a1.43,1.43,0,0,0-1.76-1,1.45,1.45,0,0,0-1,1.76,1.64,1.64,0,0,0,2.76.71,2.39,2.39,0,0,0,.54-1.16,4.34,4.34,0,0,1,.16-.47c0,.08,0,.05,0-.08.27-.46-.12-.42-1.18.14L55,31.7l-.07-.15v-.76l.07-.16a1.44,1.44,0,0,0,.52,2,1.47,1.47,0,0,0,2-.52Z"/><path class="cls-3" d="M61.35,31.65a1.76,1.76,0,0,0-.29-1.46,1.67,1.67,0,0,0-1.33-.63v2.87h.18A1.46,1.46,0,0,0,61.34,31a1.44,1.44,0,0,0-1.43-1.43h-.18a1.44,1.44,0,0,0,0,2.87h.11l-.72-.2.09.07-.51-.52,0,.11-.14-1.11,0,.11a1.48,1.48,0,0,0,1,1.77,1.45,1.45,0,0,0,1.76-1Z"/><path class="cls-3" d="M40.14,25.77l20.7.25a1.43,1.43,0,0,0,0-2.86l-20.7-.25a1.43,1.43,0,0,0,0,2.86Z"/><path class="cls-3" d="M45.23,24.58a15.64,15.64,0,0,1,2-.49c.84-.09,1.75,0,2.59,0,2,0,4-.13,6.06-.31,1.82-.16,1.84-3,0-2.86-2.3.2-4.61.32-6.92.31a17.19,17.19,0,0,0-2.87,0c-.59.1-1.07.42-1.64.55-1.8.41-1,3.18.76,2.76Z"/><path class="cls-3" d="M62.82,24.62a14.52,14.52,0,0,0-9.64-13.15l-.38,2.82,0-.07,1.62-2.11a4.48,4.48,0,0,1-1.68-.93c-1.48-1.09-2.92,1.39-1.44,2.47a8.54,8.54,0,0,0,2.36,1.22,1.45,1.45,0,0,0,1.62-2.1,2.43,2.43,0,0,0-2.52-1.35,1.44,1.44,0,0,0-.38,2.82c4.3,1.37,7.37,5.91,7.54,10.38.07,1.84,2.93,1.85,2.86,0Z"/><path class="cls-3" d="M45,33.33c-.26-1.25-1.38-2.1-2-3.21a8.18,8.18,0,0,1-.88-4.21c.08-1.85-2.79-1.84-2.86,0A10.78,10.78,0,0,0,40.82,32c.36.59,1.29,1.4,1.43,2.08.37,1.8,3.14,1,2.76-.76Z"/><path class="cls-3" d="M60.63,31.71a1.15,1.15,0,0,0,0-2.29,1.15,1.15,0,0,0,0,2.29Z"/><path class="cls-3" d="M59.41,18.53c0-1.54.18-2.87-.86-4.13a5.39,5.39,0,0,0-1.37-1.19,4.84,4.84,0,0,0-.83-.39c-.12-.05-1.11-.47-.73-.16l.34.81v-.16l-1.14,1.15h.25l-.58-2.14.59,0,.53.68-.07-.19c-.47-1.39-2.69-.79-2.21.61a1.55,1.55,0,0,0,2.32.92,1.15,1.15,0,0,0-.58-2.13l-.25,0a1.17,1.17,0,0,0-1.15,1.15c0,1.39,1.28,1.3,2.22,1.81A2.63,2.63,0,0,1,57.1,16.3a7.93,7.93,0,0,1,0,2.23,1.15,1.15,0,0,0,2.3,0Z"/></g></g></svg>