<svg xmlns="http://www.w3.org/2000/svg" viewBox="0 0 42.06 381.4"><defs><style>.cls-1{fill:#1d1d1b;}</style></defs><title>emailsingle</title><g id="Layer_2" data-name="Layer 2"><g id="Layer_1-2" data-name="Layer 1"><path class="cls-1" d="M10.4,3.78A7.91,7.91,0,0,1,14.15,0l2,2.89a5.42,5.42,0,0,0-2.94,2.63,9.41,9.41,0,0,0-1,4.41,7.06,7.06,0,0,0,.94,4,2.76,2.76,0,0,0,2.36,1.38A2.33,2.33,0,0,0,17.6,14,14,14,0,0,0,19,9.48a23.11,23.11,0,0,1,1.41-5.07,6.1,6.1,0,0,1,2.09-2.72A5.54,5.54,0,0,1,25.59.85a5.65,5.65,0,0,1,3.34,1.06A7.5,7.5,0,0,1,31.36,5a11.06,11.06,0,0,1,.91,4.63A10.93,10.93,0,0,1,31,15.33a7.3,7.3,0,0,1-4,3.1l-1.78-3a5.54,5.54,0,0,0,3.07-2.16,6.48,6.48,0,0,0,.93-3.63,6.68,6.68,0,0,0-1-3.69,2.76,2.76,0,0,0-2.27-1.51,2.5,2.5,0,0,0-2.27,1.31,14.49,14.49,0,0,0-1.39,4.7C21.75,13.5,21,15.68,20,17a5.16,5.16,0,0,1-4.27,1.91,5.51,5.51,0,0,1-3.41-1.13A7.38,7.38,0,0,1,10,14.49a13.27,13.27,0,0,1-.84-4.92A12.89,12.89,0,0,1,10.4,3.78Z"/><path class="cls-1" d="M7.3,29c-2.52,0-4.37-.67-5.54-2A7,7,0,0,1,0,22.25a7.51,7.51,0,0,1,.4-2.49,6.45,6.45,0,0,1,1.07-2l3.38.76a5.39,5.39,0,0,0-1.38,3.65q0,3.25,4.19,3.25H31.83V29Zm33.36.11a2.68,2.68,0,1,1,.78-1.89A2.57,2.57,0,0,1,40.66,29.13Z"/><path class="cls-1" d="M29.18,55.66c-2.06,1.82-4.89,2.74-8.48,2.74s-6.42-.92-8.48-2.74a9.41,9.41,0,0,1-3.09-7.41,9,9,0,0,1,1.18-4.61,7.4,7.4,0,0,1,3.13-3l-3.87-.23V37.3H42.06v3.56H28.36a7.82,7.82,0,0,1,2.84,3,8.87,8.87,0,0,1,1.07,4.39A9.41,9.41,0,0,1,29.18,55.66ZM14.53,53a9.52,9.52,0,0,0,6.17,1.86A9.49,9.49,0,0,0,26.86,53a6.26,6.26,0,0,0,2.29-5.12,6.32,6.32,0,0,0-2.22-5.1,8.89,8.89,0,0,0-6-1.89h-.54a8.89,8.89,0,0,0-6,1.89,6.33,6.33,0,0,0-2.23,5.1A6.26,6.26,0,0,0,14.53,53Z"/><path class="cls-1" d="M31.83,84.61H9.57V81.5L13,81.27c-2.55-1.48-3.82-4.14-3.82-8a8.66,8.66,0,0,1,2-5.9q2-2.3,6.14-2.3H31.83v3.57H18.2c-2.16,0-3.69.44-4.6,1.33a5.25,5.25,0,0,0-1.36,3.92A7.23,7.23,0,0,0,14.11,79c1.25,1.36,3.12,2,5.61,2H31.83Z"/><path class="cls-1" d="M11,110.25A4.7,4.7,0,0,1,7.12,112a5.45,5.45,0,0,1-3.76-1.47,9.43,9.43,0,0,1-2.49-4A16.9,16.9,0,0,1,0,101c0-3.39.55-5.94,1.63-7.66A4.86,4.86,0,0,1,5.88,90.8a3.89,3.89,0,0,1,2.67,1,5.75,5.75,0,0,1,1.64,2.88,6.21,6.21,0,0,1,1.7-2.21,3.7,3.7,0,0,1,2.4-.82,4.16,4.16,0,0,1,2.74.89A5.26,5.26,0,0,1,18.65,95a6.49,6.49,0,0,1,2.56-2.43,7.51,7.51,0,0,1,3.54-.82,6.73,6.73,0,0,1,3.89,1.16,7.62,7.62,0,0,1,2.68,3.24,11.37,11.37,0,0,1,1,4.72,11.15,11.15,0,0,1-.89,4.54q4.54,1.25,4.54,6.28l-3.11.8c0-2.91-.82-4.67-2.45-5.3a7.24,7.24,0,0,1-2.45,2.07,7.11,7.11,0,0,1-7-.42,7.65,7.65,0,0,1-2.68-3.25,11.21,11.21,0,0,1-.95-4.72,13,13,0,0,1,.4-3.43,3.58,3.58,0,0,0-1-1.91A2.66,2.66,0,0,0,14.82,95a2.14,2.14,0,0,0-1.78.8,3.44,3.44,0,0,0-.62,2.14v7.39A7.71,7.71,0,0,1,11,110.25Zm-6.93-3.47a3.15,3.15,0,0,0,2.65,2,2.21,2.21,0,0,0,2-1,6.34,6.34,0,0,0,.67-3.4v-6a5.69,5.69,0,0,0-.74-3.15,2.29,2.29,0,0,0-2-1.12A2.94,2.94,0,0,0,3.94,96a12.32,12.32,0,0,0-1,5.47A11.14,11.14,0,0,0,4.07,106.78Zm24-9.75a4.36,4.36,0,0,0-6.68,0,6.45,6.45,0,0,0,0,7.74,4.36,4.36,0,0,0,6.68,0,6.45,6.45,0,0,0,0-7.74Z"/><path class="cls-1" d="M11,134.68a4.7,4.7,0,0,1-3.88,1.78A5.49,5.49,0,0,1,3.36,135a9.4,9.4,0,0,1-2.49-4A16.81,16.81,0,0,1,0,125.47c0-3.38.55-5.93,1.63-7.65a4.85,4.85,0,0,1,4.25-2.59,3.85,3.85,0,0,1,2.67,1,5.72,5.72,0,0,1,1.64,2.87,6.26,6.26,0,0,1,1.7-2.2,3.7,3.7,0,0,1,2.4-.83A4.22,4.22,0,0,1,17,117a5.31,5.31,0,0,1,1.62,2.45A6.39,6.39,0,0,1,21.21,117a7.52,7.52,0,0,1,3.54-.83,6.8,6.8,0,0,1,3.89,1.16,7.59,7.59,0,0,1,2.68,3.25,11.34,11.34,0,0,1,1,4.72,11.18,11.18,0,0,1-.89,4.54q4.54,1.25,4.54,6.27l-3.11.8c0-2.9-.82-4.67-2.45-5.29a7.24,7.24,0,0,1-2.45,2.07,7.18,7.18,0,0,1-7-.42,7.71,7.71,0,0,1-2.68-3.25,11.21,11.21,0,0,1-.95-4.72,13,13,0,0,1,.4-3.43,3.54,3.54,0,0,0-1-1.91,2.66,2.66,0,0,0-1.83-.58,2.11,2.11,0,0,0-1.78.8,3.4,3.4,0,0,0-.62,2.14v7.38A7.69,7.69,0,0,1,11,134.68Zm-6.93-3.47a3.13,3.13,0,0,0,2.65,2,2.21,2.21,0,0,0,2-1,6.36,6.36,0,0,0,.67-3.4v-6a5.72,5.72,0,0,0-.74-3.16,2.3,2.3,0,0,0-2-1.11,2.92,2.92,0,0,0-2.65,1.87,12.29,12.29,0,0,0-1,5.47A11.07,11.07,0,0,0,4.07,131.21Zm24-9.75a4.37,4.37,0,0,0-6.68,0,6.47,6.47,0,0,0,0,7.75,4.36,4.36,0,0,0,6.68,0,6.47,6.47,0,0,0,0-7.75Z"/><path class="cls-1" d="M5.83,150.22a11.17,11.17,0,0,1-4.51-2.89A6.3,6.3,0,0,1,0,143.19a7.74,7.74,0,0,1,.45-2.83,5.65,5.65,0,0,1,1.42-2.07l3,1.25a4.19,4.19,0,0,0-1.78,3.6,3.61,3.61,0,0,0,.78,2.29,6.25,6.25,0,0,0,2.82,1.76l2.9,1.16,22.21-9.3v4l-14.51,5.56-4,1.38,4.4,1.6,14.07,5.21v3.83Z"/><path class="cls-1" d="M36.59,194.11a14.89,14.89,0,0,1-6.37,6.07,20.2,20.2,0,0,1-9.08,2,17.54,17.54,0,0,1-6.27-1,9.24,9.24,0,0,1-4.1-2.87A6.84,6.84,0,0,1,9.35,194a4.93,4.93,0,0,1,1.18-3.52,5.61,5.61,0,0,1,2.91-1.64,8.35,8.35,0,0,1-2.85-3.23,10.2,10.2,0,0,1-1-4.65,7,7,0,0,1,1.09-3.83,7.64,7.64,0,0,1,3.14-2.76,10.68,10.68,0,0,1,4.81-1,12.62,12.62,0,0,1,6.21,1.47,10.55,10.55,0,0,1,4.05,3.83,9.63,9.63,0,0,1,1.4,5q0,5.16-3.87,6.68l3.6.89v2.31l-13.84-1.73a6.92,6.92,0,0,0-1-.05c-2.19,0-3.29.94-3.29,2.8a4,4,0,0,0,2.36,3.66,15.29,15.29,0,0,0,6.94,1.24,17.22,17.22,0,0,0,7.9-1.73,12.61,12.61,0,0,0,5.35-5.21A17.18,17.18,0,0,0,36.32,184a18.15,18.15,0,0,0-2.07-8.88,14,14,0,0,0-5.85-5.76,18.7,18.7,0,0,0-8.9-2,17.11,17.11,0,0,0-8.48,2A13.94,13.94,0,0,0,5.45,175a16.48,16.48,0,0,0-1.93,8,16.78,16.78,0,0,0,.76,5.58,15.94,15.94,0,0,0,2.13,4l-2,1.56a21,21,0,0,1-2.58-4.83A18.85,18.85,0,0,1,.89,183a20,20,0,0,1,2.31-9.77,16.19,16.19,0,0,1,6.55-6.52,19.91,19.91,0,0,1,9.75-2.32,20.7,20.7,0,0,1,10.12,2.43,17,17,0,0,1,6.88,6.87A21.12,21.12,0,0,1,39,184,20,20,0,0,1,36.59,194.11ZM25.28,178.53a9.69,9.69,0,0,0-6.49-2A7.36,7.36,0,0,0,14,178,4.94,4.94,0,0,0,12.24,182a7,7,0,0,0,1.69,4.67,7.17,7.17,0,0,0,4.81,2.4l2.18.27c.6.06,1,.09,1.33.09a5.65,5.65,0,0,0,3.94-1.31A5.36,5.36,0,0,0,27.64,184,6.75,6.75,0,0,0,25.28,178.53Z"/><path class="cls-1" d="M5.83,217.87A11.06,11.06,0,0,1,1.32,215,6.3,6.3,0,0,1,0,210.84,7.74,7.74,0,0,1,.45,208a5.82,5.82,0,0,1,1.42-2.07l3,1.25a4.19,4.19,0,0,0-1.78,3.6,3.64,3.64,0,0,0,.78,2.3,6.33,6.33,0,0,0,2.82,1.76L9.62,216l22.21-9.3v4.05l-14.51,5.56-4,1.38,4.4,1.61,14.07,5.2v3.83Z"/><path class="cls-1" d="M12.38,252.68l-2.81-.23a7.79,7.79,0,0,1-.44-2.67,4.45,4.45,0,0,1,.75-2.73,3.72,3.72,0,0,1,2.54-1.27,6.7,6.7,0,0,1-2.43-3,10.37,10.37,0,0,1-.86-4.16,9.12,9.12,0,0,1,1.53-5.43,5.12,5.12,0,0,1,4.43-2.13,5.54,5.54,0,0,1,4.38,2.22A13.4,13.4,0,0,1,22,239.73l1,5.91h1.25a4.76,4.76,0,0,0,3.56-1.37,5.3,5.3,0,0,0,1.33-3.83,6.49,6.49,0,0,0-4.22-6.37l1.91-2.62a7.47,7.47,0,0,1,4,3.31,10.75,10.75,0,0,1,1.47,5.68,9.94,9.94,0,0,1-1.91,6.36,6.81,6.81,0,0,1-5.66,2.41H13.76a1.64,1.64,0,0,0-1.21.4,1.78,1.78,0,0,0-.4,1.29A7.31,7.31,0,0,0,12.38,252.68Zm1.2-9.06a4,4,0,0,0,3.47,2h3.07l-.94-5a11.6,11.6,0,0,0-1.53-4.45,3,3,0,0,0-2.56-1.47A2.41,2.41,0,0,0,13,235.81a5.19,5.19,0,0,0-.74,3A8.58,8.58,0,0,0,13.58,243.62Z"/><path class="cls-1" d="M30.09,274.89a8,8,0,0,1-6.27,2.45H9.57v-3.56h13q3.46,0,5-1.5a5.23,5.23,0,0,0,1.55-4,7.31,7.31,0,0,0-.79-3.32,6.29,6.29,0,0,0-2.56-2.58,8.85,8.85,0,0,0-4.43-1H9.57v-3.56H42.06v3.56H28.49a7.06,7.06,0,0,1,2.85,3,9.48,9.48,0,0,1,.93,4.25A9,9,0,0,1,30.09,274.89Z"/><path class="cls-1" d="M29.2,302.68c-2.05,1.92-4.88,2.87-8.5,2.87s-6.45-.95-8.5-2.87a11.7,11.7,0,0,1,0-15.8Q15.28,284,20.7,284t8.5,2.87a11.7,11.7,0,0,1,0,15.8Zm-2.27-13.19a9.34,9.34,0,0,0-6.23-1.92,9.34,9.34,0,0,0-6.23,1.92,7.31,7.31,0,0,0,0,10.59A9.34,9.34,0,0,0,20.7,302a9.34,9.34,0,0,0,6.23-1.91,7.31,7.31,0,0,0,0-10.59Z"/><path class="cls-1" d="M29.2,329.75q-3.07,2.87-8.5,2.87t-8.5-2.87a11.7,11.7,0,0,1,0-15.8c2.05-1.92,4.88-2.87,8.5-2.87s6.45.95,8.5,2.87a11.7,11.7,0,0,1,0,15.8Zm-2.27-13.2a9.34,9.34,0,0,0-6.23-1.91,9.34,9.34,0,0,0-6.23,1.91,7.31,7.31,0,0,0,0,10.59,9.34,9.34,0,0,0,6.23,1.92,9.34,9.34,0,0,0,6.23-1.92,7.31,7.31,0,0,0,0-10.59Z"/><path class="cls-1" d="M14.11,342.5a2.83,2.83,0,0,1-2.09.8,2.83,2.83,0,0,1-2.09-.8,2.8,2.8,0,0,1-.8-2.09,2.75,2.75,0,0,1,2.89-2.9,2.83,2.83,0,0,1,2.09.8,2.87,2.87,0,0,1,.8,2.1A2.83,2.83,0,0,1,14.11,342.5Z"/><path class="cls-1" d="M36.83,350.31a2.62,2.62,0,0,1,1.94-.73,2.59,2.59,0,0,1,1.93.73,2.9,2.9,0,0,1,0,3.87,2.59,2.59,0,0,1-1.93.74,2.52,2.52,0,0,1-2.67-2.67A2.66,2.66,0,0,1,36.83,350.31ZM9.57,354v-3.56H31.83V354Z"/><path class="cls-1" d="M19.36,381.22V364.44a8.07,8.07,0,0,0-5.25,2.25,6.94,6.94,0,0,0-1.87,5,8.7,8.7,0,0,0,.85,4.07,4.35,4.35,0,0,0,2.45,2.2L14,381a9.16,9.16,0,0,1-3.61-3.56,11.56,11.56,0,0,1-1.24-5.69,10.26,10.26,0,0,1,3.07-7.9c2.05-1.92,4.88-2.87,8.5-2.87s6.45.91,8.5,2.73,3.07,4.42,3.07,7.77a10.16,10.16,0,0,1-1.38,5.38,8.84,8.84,0,0,1-3.74,3.43,11.85,11.85,0,0,1-5.29,1.16A17.52,17.52,0,0,1,19.36,381.22Zm8.06-14.53a7.91,7.91,0,0,0-4.9-2.2V378a8.14,8.14,0,0,0,4.88-2.05,5.93,5.93,0,0,0,1.75-4.49A6.53,6.53,0,0,0,27.42,366.69Z"/></g></g></svg>