<svg xmlns="http://www.w3.org/2000/svg" viewBox="0 0 12.09 229.35"><defs><style>.cls-1{fill:none;stroke:#1d1d1b;stroke-miterlimit:10;}.cls-2{fill:#1d1d1b;}</style></defs><title>email_1</title><g id="Layer_2" data-name="Layer 2"><g id="Layer_1-2" data-name="Layer 1"><line class="cls-1" x1="5.95" y1="84.33" x2="5.95"/><path class="cls-2" d="M3,120.8a2.29,2.29,0,0,1,1.08-1.09l.57.84a1.54,1.54,0,0,0-.84.75,2.67,2.67,0,0,0-.28,1.27,2.06,2.06,0,0,0,.27,1.15.81.81,0,0,0,.68.4.68.68,0,0,0,.59-.38,4,4,0,0,0,.39-1.3,7.23,7.23,0,0,1,.4-1.46,1.71,1.71,0,0,1,.61-.78,1.59,1.59,0,0,1,.9-.24,1.65,1.65,0,0,1,1,.3,2.1,2.1,0,0,1,.69.89,3.07,3.07,0,0,1,.27,1.33,3.13,3.13,0,0,1-.38,1.64,2.07,2.07,0,0,1-1.16.89l-.51-.87a1.6,1.6,0,0,0,.88-.62,2.14,2.14,0,0,0,0-2.1.81.81,0,0,0-.65-.44.72.72,0,0,0-.65.38,4,4,0,0,0-.4,1.35,4.3,4.3,0,0,1-.65,1.88,1.47,1.47,0,0,1-1.23.55,1.55,1.55,0,0,1-1-.33,2.06,2.06,0,0,1-.67-.93,3.66,3.66,0,0,1-.25-1.41A3.79,3.79,0,0,1,3,120.8Z"/><path class="cls-2" d="M2.1,128.06a2,2,0,0,1-1.59-.59A2,2,0,0,1,0,126.11a2.08,2.08,0,0,1,.12-.71,1.81,1.81,0,0,1,.3-.57l1,.22a1.55,1.55,0,0,0-.39,1q0,.93,1.2.93h7v1Zm9.59,0a.79.79,0,1,1,.22-.55A.74.74,0,0,1,11.69,128.09Z"/><path class="cls-2" d="M8.39,135.71A3.55,3.55,0,0,1,6,136.5a3.55,3.55,0,0,1-2.44-.79,2.7,2.7,0,0,1-.89-2.13A2.65,2.65,0,0,1,3,132.26a2.12,2.12,0,0,1,.9-.86l-1.11-.07v-.89h9.34v1H8.15a2.27,2.27,0,0,1,.82.86,2.61,2.61,0,0,1,.31,1.26A2.7,2.7,0,0,1,8.39,135.71Zm-4.21-.77a2.71,2.71,0,0,0,1.77.54,2.71,2.71,0,0,0,1.77-.54,1.8,1.8,0,0,0,.66-1.47A1.83,1.83,0,0,0,7.74,132,2.56,2.56,0,0,0,6,131.46H5.87a2.58,2.58,0,0,0-1.71.54,1.83,1.83,0,0,0-.64,1.47A1.8,1.8,0,0,0,4.18,134.94Z"/><path class="cls-2" d="M9.15,144H2.75v-.9l1-.06a2.43,2.43,0,0,1-1.1-2.29,2.52,2.52,0,0,1,.58-1.7A2.22,2.22,0,0,1,5,138.43H9.15v1H5.23a1.83,1.83,0,0,0-1.32.38A1.52,1.52,0,0,0,3.52,141a2.08,2.08,0,0,0,.54,1.46,2.07,2.07,0,0,0,1.61.58H9.15Z"/><path class="cls-2" d="M3.16,151.41a1.34,1.34,0,0,1-1.11.51A1.56,1.56,0,0,1,1,151.5a2.83,2.83,0,0,1-.72-1.15A4.74,4.74,0,0,1,0,148.76a4.18,4.18,0,0,1,.47-2.2,1.39,1.39,0,0,1,1.22-.74,1.11,1.11,0,0,1,.77.3,1.62,1.62,0,0,1,.47.82,1.84,1.84,0,0,1,.49-.63,1,1,0,0,1,.69-.24,1.18,1.18,0,0,1,.78.26,1.48,1.48,0,0,1,.47.7,1.84,1.84,0,0,1,.74-.7,2.24,2.24,0,0,1,1-.23,1.94,1.94,0,0,1,1.12.33,2.15,2.15,0,0,1,.77.93,3.15,3.15,0,0,1,.28,1.36A3.29,3.29,0,0,1,9,150a1.67,1.67,0,0,1,1.31,1.8l-.9.23c0-.84-.23-1.34-.7-1.52a2.12,2.12,0,0,1-.71.59A2.05,2.05,0,0,1,6,151a2.15,2.15,0,0,1-.77-.93A3.15,3.15,0,0,1,5,148.72a3.68,3.68,0,0,1,.12-1,1.14,1.14,0,0,0-.28-.55.8.8,0,0,0-.53-.16.59.59,0,0,0-.51.23,1,1,0,0,0-.18.61V150A2.24,2.24,0,0,1,3.16,151.41Zm-2-1a.9.9,0,0,0,.76.56.63.63,0,0,0,.57-.29,1.89,1.89,0,0,0,.19-1V148a1.68,1.68,0,0,0-.21-.91.68.68,0,0,0-.59-.32.85.85,0,0,0-.76.54,3.6,3.6,0,0,0-.27,1.57A3.19,3.19,0,0,0,1.17,150.41Zm6.9-2.8a1.17,1.17,0,0,0-1-.45,1.19,1.19,0,0,0-1,.45,1.85,1.85,0,0,0,0,2.22,1.19,1.19,0,0,0,1,.45,1.17,1.17,0,0,0,1-.45,1.81,1.81,0,0,0,0-2.22Z"/><path class="cls-2" d="M3.16,158.43a1.34,1.34,0,0,1-1.11.51A1.56,1.56,0,0,1,1,158.52a2.73,2.73,0,0,1-.72-1.14,4.84,4.84,0,0,1-.25-1.6,4.21,4.21,0,0,1,.47-2.2,1.41,1.41,0,0,1,1.22-.74,1.11,1.11,0,0,1,.77.3,1.65,1.65,0,0,1,.47.83,1.79,1.79,0,0,1,.49-.64,1,1,0,0,1,.69-.23,1.18,1.18,0,0,1,.78.25,1.51,1.51,0,0,1,.47.71,1.84,1.84,0,0,1,.74-.7,2.12,2.12,0,0,1,1-.24,1.94,1.94,0,0,1,1.12.33,2.24,2.24,0,0,1,.77.94,3.11,3.11,0,0,1,.28,1.35A3.26,3.26,0,0,1,9,157.05a1.68,1.68,0,0,1,1.31,1.8l-.9.23c0-.83-.23-1.34-.7-1.52a2,2,0,0,1-.71.6A2.05,2.05,0,0,1,6,158a2.24,2.24,0,0,1-.77-.94A3.12,3.12,0,0,1,5,155.74a3.6,3.6,0,0,1,.12-1,1.05,1.05,0,0,0-.28-.55.8.8,0,0,0-.53-.17.62.62,0,0,0-.51.23,1,1,0,0,0-.18.62V157A2.22,2.22,0,0,1,3.16,158.43Zm-2-1a.9.9,0,0,0,.76.57.65.65,0,0,0,.57-.29,1.93,1.93,0,0,0,.19-1V155a1.63,1.63,0,0,0-.21-.91.66.66,0,0,0-.59-.32.86.86,0,0,0-.76.53,3.65,3.65,0,0,0-.27,1.58A3.12,3.12,0,0,0,1.17,157.43Zm6.9-2.8a1.17,1.17,0,0,0-1-.45,1.19,1.19,0,0,0-1,.45,1.87,1.87,0,0,0,0,2.23,1.19,1.19,0,0,0,1,.45,1.17,1.17,0,0,0,1-.45,1.83,1.83,0,0,0,0-2.23Z"/><path class="cls-2" d="M1.68,162.9a3.27,3.27,0,0,1-1.3-.83A1.84,1.84,0,0,1,0,160.88a2.17,2.17,0,0,1,.13-.82,1.62,1.62,0,0,1,.41-.59l.87.36a1.19,1.19,0,0,0-.51,1,1,1,0,0,0,.22.66,1.88,1.88,0,0,0,.81.51l.83.33,6.39-2.67v1.16L5,162.45l-1.14.4,1.27.46,4,1.49v1.1Z"/><path class="cls-2" d="M10.52,175.51a4.23,4.23,0,0,1-1.83,1.75,5.82,5.82,0,0,1-2.61.57,5,5,0,0,1-1.81-.3,2.57,2.57,0,0,1-1.17-.82,1.93,1.93,0,0,1-.41-1.24,1.4,1.4,0,0,1,.34-1,1.6,1.6,0,0,1,.83-.47,2.29,2.29,0,0,1-.81-.93,2.86,2.86,0,0,1-.3-1.33,2.07,2.07,0,0,1,.31-1.1,2.16,2.16,0,0,1,.91-.8,3.12,3.12,0,0,1,1.38-.29,3.6,3.6,0,0,1,1.78.42,3,3,0,0,1,1.17,1.1,2.74,2.74,0,0,1,.4,1.43,1.83,1.83,0,0,1-1.11,1.92l1,.26v.66l-4-.5H4.35c-.63,0-.95.27-.95.81a1.14,1.14,0,0,0,.68,1.05,4.38,4.38,0,0,0,2,.36,5,5,0,0,0,2.27-.5A3.68,3.68,0,0,0,9.88,175a4.85,4.85,0,0,0,.56-2.43,5.28,5.28,0,0,0-.59-2.55,4,4,0,0,0-1.69-1.66,5.29,5.29,0,0,0-2.56-.58,5,5,0,0,0-2.43.58A4,4,0,0,0,1.57,170a4.7,4.7,0,0,0,.27,5.07l-.59.45a6.49,6.49,0,0,1-.74-1.39,5.49,5.49,0,0,1-.25-1.83,5.74,5.74,0,0,1,.66-2.8,4.66,4.66,0,0,1,1.88-1.88A5.79,5.79,0,0,1,5.6,167a6,6,0,0,1,2.92.69,5,5,0,0,1,2,2,6,6,0,0,1,.71,3A5.73,5.73,0,0,1,10.52,175.51ZM7.27,171a2.82,2.82,0,0,0-1.87-.57,2.07,2.07,0,0,0-1.38.41,1.42,1.42,0,0,0-.5,1.16A2,2,0,0,0,4,173.38a2.08,2.08,0,0,0,1.38.69l.62.07.39,0a1.62,1.62,0,0,0,1.13-.38A1.52,1.52,0,0,0,8,172.6,2,2,0,0,0,7.27,171Z"/><path class="cls-2" d="M1.68,182.34a3.07,3.07,0,0,1-1.3-.83A1.81,1.81,0,0,1,0,180.32a2.15,2.15,0,0,1,.13-.81,1.54,1.54,0,0,1,.41-.59l.87.35a1.22,1.22,0,0,0-.51,1,1,1,0,0,0,.22.66,1.88,1.88,0,0,0,.81.51l.83.33,6.39-2.68v1.17L5,181.9l-1.14.39,1.27.46,4,1.5v1.1Z"/><path class="cls-2" d="M3.56,192.35l-.81-.06a2.44,2.44,0,0,1-.13-.77,1.32,1.32,0,0,1,.22-.79,1.08,1.08,0,0,1,.73-.36,2,2,0,0,1-.7-.87,3,3,0,0,1-.25-1.19,2.64,2.64,0,0,1,.44-1.56,1.49,1.49,0,0,1,1.28-.62,1.63,1.63,0,0,1,1.26.64,3.9,3.9,0,0,1,.73,1.86l.29,1.7H7a1.36,1.36,0,0,0,1-.4,1.53,1.53,0,0,0,.38-1.1,1.92,1.92,0,0,0-.31-1.1,1.89,1.89,0,0,0-.9-.73l.55-.75a2.17,2.17,0,0,1,1.13.95,3,3,0,0,1,.43,1.63,2.89,2.89,0,0,1-.55,1.83,2,2,0,0,1-1.63.69H4a.45.45,0,0,0-.34.12.48.48,0,0,0-.12.37A1.79,1.79,0,0,0,3.56,192.35Zm.34-2.6a1.18,1.18,0,0,0,1,.58h.88l-.27-1.43a3.15,3.15,0,0,0-.44-1.28.86.86,0,0,0-.73-.43.7.7,0,0,0-.61.31,1.52,1.52,0,0,0-.21.86A2.51,2.51,0,0,0,3.9,189.75Z"/><path class="cls-2" d="M8.65,198.74a2.32,2.32,0,0,1-1.8.7H2.75v-1H6.49A2.06,2.06,0,0,0,7.93,198a1.52,1.52,0,0,0,.45-1.15,2.11,2.11,0,0,0-.23-1,1.79,1.79,0,0,0-.73-.74,2.5,2.5,0,0,0-1.28-.29H2.75v-1h9.34v1H8.19a2,2,0,0,1,.82.86,2.7,2.7,0,0,1,.27,1.22A2.6,2.6,0,0,1,8.65,198.74Z"/><path class="cls-2" d="M8.39,206.73a3.41,3.41,0,0,1-2.44.82,3.43,3.43,0,0,1-2.44-.82,3.35,3.35,0,0,1,0-4.55A3.43,3.43,0,0,1,6,201.36a3.41,3.41,0,0,1,2.44.82,3.35,3.35,0,0,1,0,4.55Zm-.65-3.8A2.72,2.72,0,0,0,6,202.38a2.72,2.72,0,0,0-1.79.55,2.11,2.11,0,0,0,0,3,2.72,2.72,0,0,0,1.79.55A2.72,2.72,0,0,0,7.74,206a2.11,2.11,0,0,0,0-3Z"/><path class="cls-2" d="M8.39,214.51a3.41,3.41,0,0,1-2.44.82,3.43,3.43,0,0,1-2.44-.82,3.35,3.35,0,0,1,0-4.55A3.43,3.43,0,0,1,6,209.14a3.41,3.41,0,0,1,2.44.82,3.35,3.35,0,0,1,0,4.55Zm-.65-3.8A2.66,2.66,0,0,0,6,210.16a2.66,2.66,0,0,0-1.79.55,2.11,2.11,0,0,0,0,3,2.72,2.72,0,0,0,1.79.55,2.72,2.72,0,0,0,1.79-.55,2.11,2.11,0,0,0,0-3Z"/><path class="cls-2" d="M4.06,218.17a.85.85,0,0,1-.6.23.85.85,0,0,1-.61-.23.9.9,0,0,1,0-1.2.85.85,0,0,1,.61-.23.85.85,0,0,1,.6.23.9.9,0,0,1,0,1.2Z"/><path class="cls-2" d="M10.59,220.42a.75.75,0,0,1,.55-.21.75.75,0,0,1,.56.21.74.74,0,0,1,.21.55.76.76,0,0,1-.21.56.75.75,0,0,1-.56.21.75.75,0,0,1-.55-.21.76.76,0,0,1-.21-.56A.74.74,0,0,1,10.59,220.42Zm-7.84,1.06v-1h6.4v1Z"/><path class="cls-2" d="M5.57,229.3v-4.82a2.27,2.27,0,0,0-1.51.65,2,2,0,0,0-.54,1.43,2.61,2.61,0,0,0,.24,1.18,1.25,1.25,0,0,0,.71.63l-.45.86a2.71,2.71,0,0,1-1-1,3.29,3.29,0,0,1-.36-1.64,3,3,0,0,1,.89-2.27A3.43,3.43,0,0,1,6,223.47a3.54,3.54,0,0,1,2.44.78,2.85,2.85,0,0,1,.89,2.24,3,3,0,0,1-.4,1.55,2.53,2.53,0,0,1-1.07,1,3.47,3.47,0,0,1-1.53.33A4.17,4.17,0,0,1,5.57,229.3Zm2.31-4.17a2.27,2.27,0,0,0-1.41-.64v3.88a2.4,2.4,0,0,0,1.41-.59,1.72,1.72,0,0,0,.5-1.29A1.83,1.83,0,0,0,7.88,225.13Z"/></g></g></svg>