<svg xmlns="http://www.w3.org/2000/svg" viewBox="0 0 18.39 225.22"><defs><style>.cls-1{fill:#1d1d1b;}.cls-2,.cls-3,.cls-4,.cls-5,.cls-7{fill:none;}.cls-2,.cls-3,.cls-4,.cls-5,.cls-6,.cls-7{stroke:#1d1d1b;stroke-miterlimit:10;}.cls-2{stroke-width:0.11px;}.cls-3{stroke-width:0.1px;}.cls-4{stroke-width:0.06px;}.cls-5{stroke-width:0.16px;}.cls-6{fill:#6300ff;stroke-width:1.13px;}</style></defs><title>icons2</title><g id="Layer_2" data-name="Layer 2"><g id="Layer_1-2" data-name="Layer 1"><path class="cls-1" d="M7,124c.22-2.46,3.08-3,3.08-3h3.17v3H11.09a1.21,1.21,0,0,0-.93.92l0,2.34h3l-.5,3.17H10.2v7.77H7v-7.86H4.4v-3.08H7Z"/><path class="cls-2" d="M14,154l-9.63,0A5.63,5.63,0,0,0,.05,158.2v8.89A5.42,5.42,0,0,0,4.36,172L14,172a5.41,5.41,0,0,0,4.3-4.9v-8.9A5.64,5.64,0,0,0,14,154Zm2.69,12.33a4.46,4.46,0,0,1-3.54,4l-7.93,0a4.46,4.46,0,0,1-3.55-4v-7.32a4.65,4.65,0,0,1,3.55-3.42l7.93,0A4.65,4.65,0,0,1,16.68,159Z"/><path class="cls-2" d="M13.14,155.61l-7.93,0a4.65,4.65,0,0,0-3.55,3.42v7.32a4.46,4.46,0,0,0,3.55,4l7.93,0a4.46,4.46,0,0,0,3.54-4V159A4.65,4.65,0,0,0,13.14,155.61Z"/><circle class="cls-3" cx="9.17" cy="162.98" r="4.69"/><circle class="cls-4" cx="9.17" cy="162.98" r="2.91"/><circle class="cls-1" cx="13.86" cy="158.29" r="1.1"/><path class="cls-1" d="M2.44,156a3.22,3.22,0,0,1,1.27-.48l-.31-.74c-.44.52-1,.87-1.42,1.43-.21.3.15.78.49.64a20.41,20.41,0,0,1,3.86-1.53c.53-.09.33-.79-.11-.85a5.39,5.39,0,0,0-2.6.4l.34.79a2.66,2.66,0,0,1,.94-.5.44.44,0,0,0,.11-.79,1.25,1.25,0,0,0-.83-.16l.31.74h0l-.23-.84a8.28,8.28,0,0,0-1.66.68c-.42.23-.13,1,.34.79l.17-.07-.34-.79c-.26.18-.47.25-.71.45s.12,1,.53.68l.49-.34-.53-.68-.56.43.64.49-.12.13-.64-.49a12.74,12.74,0,0,1-.81,1.43A10.86,10.86,0,0,0,.57,158c-.17.5.52.7.79.34a8.1,8.1,0,0,1,2.1-2.07c.47-.31,0-1.06-.44-.75a9.4,9.4,0,0,0-2.41,2.38l.8.33c.32-1,1-1.73,1.3-2.66a.44.44,0,0,0-.64-.49.56.56,0,0,0-.28.39c-.05.32.3.74.64.49l.74-.56c.39-.3-.12-1-.53-.69l-.49.34.53.68c.13-.1.39-.21.53-.31.38-.26.15-1-.33-.79l-.18.07.34.79a6.5,6.5,0,0,1,1.45-.59c.55-.16.31-.91-.23-.84a.52.52,0,0,0-.38.22c-.21.25-.11.79.3.74a.41.41,0,0,1,.39,0l.1-.8a3.8,3.8,0,0,0-1.15.59c-.35.27-.17,1,.33.8a4.71,4.71,0,0,1,2.37-.37l-.12-.85A19.36,19.36,0,0,0,2.24,156l.49.64A16.94,16.94,0,0,1,4,155.35c.21-.26.1-.79-.31-.74A4.21,4.21,0,0,0,2,155.2c-.49.27-.05,1,.44.75Z"/><path class="cls-1" d="M10.75,154.41l-3.54,0a.43.43,0,0,0,0,.86c1.15,0,2.3-.14,3.46-.1a24,24,0,0,0,2.94.06c.45,0,.62-.73.11-.85-1.55-.38-2.77.31-4.31.38s-2.76-.79-4.45-.26c-.53.17-.3,1,.23.84,1.49-.47,2.75.35,4.22.29s2.65-.77,4.08-.42l.12-.85a20.59,20.59,0,0,1-2.94-.06c-1.15,0-2.31.12-3.46.11v.86l3.54,0a.44.44,0,0,0,0-.87Z"/><path class="cls-1" d="M.83,157.07A13.76,13.76,0,0,0,.14,161a3.4,3.4,0,0,0,.53,2.85c.36.42,1-.2.61-.62-.7-.8-.27-2.28-.17-3.21a9.35,9.35,0,0,1,.56-2.67c.21-.51-.63-.74-.84-.23Z"/><path class="cls-1" d="M1.34,164.42c0-2.12.28-4.25.21-6.36,0-.56-.89-.56-.87,0,.07,2.11-.17,4.24-.2,6.36a.43.43,0,0,0,.86,0Z"/><path class="cls-1" d="M.78,159.57a1.6,1.6,0,0,0,0,1.43c.29.48,1,.05.75-.43-.14-.25,0-.52.08-.77.19-.52-.64-.75-.84-.23Z"/><path class="cls-1" d="M.31,163.05c0,2.19-.21,4.5,1.09,6.4a.44.44,0,0,0,.79-.1c.08-.19,0-.29,0-.47-.1-.61-.48-1.21-.59-1.85a17.71,17.71,0,0,1-.08-4.18c.05-.56-.82-.56-.87,0a25,25,0,0,0,0,3.67,6.15,6.15,0,0,0,.23,1.35,10.37,10.37,0,0,1,.47,1.25l.79-.11c-1.21-1.77-.93-3.93-1-6a.44.44,0,0,0-.87,0Z"/><path class="cls-1" d="M1,167.63a39.73,39.73,0,0,1-.06-5,.44.44,0,0,0-.74-.31c-.32.37-.08,1.22-.1,1.66a19.38,19.38,0,0,0,.05,3c.06.55.92.55.87,0A15,15,0,0,1,1,164.52a5.91,5.91,0,0,0,0-2L.8,163l0,0-.74-.31a41.74,41.74,0,0,0,.06,5c.05.55.92.56.87,0Z"/><path class="cls-1" d="M1,167.25l0-.1c.18-.53-.65-.75-.84-.23a.91.91,0,0,0-.05.33.43.43,0,0,0,.86,0Z"/><path class="cls-1" d="M.43,167.91a7.93,7.93,0,0,0,1.94,2.56,7.26,7.26,0,0,0,1.31.9,6.06,6.06,0,0,0,1.74.31c.56,0,.55-.81,0-.87s-.85-.42-1.3-.66A4,4,0,0,1,3,169.3a8.76,8.76,0,0,1-1.42-2.09c-.26-.49-1-.05-.75.44a6.17,6.17,0,0,0,.7,1.26,14.39,14.39,0,0,0,1.28,1.42,13.08,13.08,0,0,0,1.32.87,2.6,2.6,0,0,0,1.29.48v-.87a4.72,4.72,0,0,1-2.61-1.09,8,8,0,0,1-1.64-2.25c-.31-.46-1.06,0-.74.44Z"/><path class="cls-1" d="M5.35,155.56c1.27,0,2.55-.05,3.82.09.55.06.55-.81,0-.87-1.27-.14-2.55-.06-3.82-.09a.44.44,0,0,0,0,.87Z"/><path class="cls-1" d="M4.56,155c2.91.11,5.9-.12,8.77.43.54.1.78-.73.23-.84-3-.57-6-.35-9-.46-.56,0-.56.85,0,.87Z"/><path class="cls-1" d="M13.85,155.53a2.75,2.75,0,0,1,2.32.66c.45.5.4,1.33.65,1.92s1.1.95,1.18,0-1.26-1.74-1.81-2.31a4.26,4.26,0,0,0-2.71-1.19c-.56,0-.55.82,0,.86a3.4,3.4,0,0,1,2.13,1c.17.19,1.54,1.5,1.57,1.47l.43-.11a13.76,13.76,0,0,1-.42-1.66,2.06,2.06,0,0,0-.69-.88,3.73,3.73,0,0,0-2.65-.67c-.55.05-.56.92,0,.87Z"/><path class="cls-1" d="M17.72,167.62c.19-2,.15-4.06.18-6.1a.44.44,0,0,0-.87,0c0,2,0,4.06-.18,6.1-.05.55.82.55.87,0Z"/><path class="cls-1" d="M17.21,158.28a29.58,29.58,0,0,0-.28,6.84c.05.55.92.56.87,0a29.58,29.58,0,0,1,.28-6.84c.08-.55-.79-.54-.87,0Z"/><path class="cls-1" d="M18.06,162.39a5.52,5.52,0,0,0,0-3.07,6.13,6.13,0,0,1-.69-1.64c0-.32,0-.59-.31-.76a.44.44,0,0,0-.44.75c-.19-.12,0,.82,0,.87a3.63,3.63,0,0,0,.41.84,4,4,0,0,1,.17,2.78c-.13.54.71.77.84.23Z"/><path class="cls-1" d="M16.15,170.28a3.37,3.37,0,0,0,1.79-2.68c0-.41-.49-.52-.74-.31a6.13,6.13,0,0,0-1.16,1.6A3.89,3.89,0,0,1,14,170.6a.44.44,0,0,0,.23.84c1.13-.24,2.69-.71,2.73-2.09a.44.44,0,0,0-.74-.31,9,9,0,0,1-2.44,1.5c-.44.21-.13.94.34.79a6.84,6.84,0,0,0,2.37-1.84c.33-.29.58-.42.74-.82.22-.56,0-1.38.69-1.71h-.43l-.09.38.79.1v-.24c0-.56-.84-.56-.87,0a1.26,1.26,0,0,0,.05.47.44.44,0,0,0,.79.11,1.1,1.1,0,0,0-.09-1.47c-.45-.37-.86.08-1.15.43-.46.56-.22,1.33-.67,1.84-.27.31-.64.57-.93.87a3.43,3.43,0,0,1-1.42,1.05l.33.79a10,10,0,0,0,2.61-1.64l-.74-.3c0,.86-1.43,1.12-2.09,1.25l.23.84a4.66,4.66,0,0,0,2-1.29,15.48,15.48,0,0,1,1.57-2.24l-.74-.31a2.46,2.46,0,0,1-1.36,1.93c-.49.26-.05,1,.44.75Z"/><path class="cls-1" d="M8.82,171.43c.83,0,1.65,0,2.48,0a6.85,6.85,0,0,1,2.22,0l.1-.8a18.08,18.08,0,0,1-2.55.28,5.5,5.5,0,0,1-2.32-.07c-.53-.16-.76.67-.23.84a6.25,6.25,0,0,0,2.55.1,21.49,21.49,0,0,0,2.78-.31.44.44,0,0,0,.11-.79,4.85,4.85,0,0,0-2.08-.17H8.82a.44.44,0,0,0,0,.87Z"/><path class="cls-1" d="M4.72,171.35c1.54.07,3.07-.19,4.53.42l.12-.85c-.54,0-1.09,0-1.63,0s-1.65.4-2,.1l-.31.74c1.92-.25,3.93.29,5.89.09.55-.06.56-.93,0-.87-2,.2-4-.34-5.89-.09a.44.44,0,0,0-.3.75,1.47,1.47,0,0,0,1.32.33c1-.06,1.9-.21,2.89-.21.52,0,.54-.68.11-.86-1.54-.64-3.14-.37-4.76-.45-.56,0-.55.84,0,.87Z"/><path class="cls-1" d="M.15,167.73a3.54,3.54,0,0,0,.62,1.65c.39.63.64,1.12,1.37,1.39.52.19.75-.65.23-.84s-.69-.66-.91-1.07A2.81,2.81,0,0,1,1,167.73c0-.56-.89-.56-.87,0Z"/><path class="cls-1" d="M1.94,170.69A8,8,0,0,0,5.31,172a.44.44,0,0,0,0-.87,4.61,4.61,0,0,1-2.78-1c-.44-.34-.87.41-.43.75A5.3,5.3,0,0,0,5.31,172v-.87a7,7,0,0,1-2.93-1.17c-.5-.26-.94.49-.44.75Z"/><path class="cls-1" d="M3.54,171.69q-.3-.27-.12-.06l.09.07a1.53,1.53,0,0,0,.37.16,1.41,1.41,0,0,0,.86.09c.54-.12.31-1-.23-.83a1.12,1.12,0,0,1-.4-.1c-.23-.08.2.11-.1,0a.86.86,0,0,0-.47-.16c-.55,0-.56.9,0,.87Z"/><path class="cls-1" d="M2.2,170.87a.44.44,0,0,0,0-.87.44.44,0,0,0,0,.87Z"/><path class="cls-1" d="M5.1,170.59A4.07,4.07,0,0,0,4,169.92l-.25-.13c-.15-.09.12.12,0,0a5.08,5.08,0,0,1-.51-.41c-.35-.44-1,.18-.61.61a2.1,2.1,0,0,0,.41.32,3.51,3.51,0,0,0,.32.26,5.07,5.07,0,0,1,1.19.65c.39.4,1-.21.61-.61Z"/><path class="cls-1" d="M.7,166.53a4.36,4.36,0,0,0,.62,1.89c.26.39,1,.16.8-.33a5.9,5.9,0,0,1-.56-2.57,3.73,3.73,0,0,0-.06-1.82c-.2-.51-1-.29-.83.23.28.71-.05,1.46,0,2.19a8.82,8.82,0,0,0,.58,2.2l.79-.33a3.9,3.9,0,0,1-.53-1.69c-.08-.55-.92-.32-.84.23Z"/><path class="cls-1" d="M1.58,165.29v0H.71a1.46,1.46,0,0,0,.1.47c.09.05.1.1,0,.15l0,.37.86-.11a2.53,2.53,0,0,1,0-.91c.1-.54-.73-.78-.84-.23a3.94,3.94,0,0,0,0,1.37c.07.5.83.35.85-.12a3.09,3.09,0,0,0,0-.68c0-.09-.11-.26-.11-.31,0-.56-.83-.55-.87,0v0c0,.55.82.55.87,0Z"/><path class="cls-1" d="M1.66,163.9a20.08,20.08,0,0,1-.1-2.33c0-.52.12-1,.09-1.55a.44.44,0,0,0-.87,0c0,.75,0,1.52,0,2.26,0,.44-.15.7.16,1.05a.44.44,0,0,0,.74-.31,3.1,3.1,0,0,0,0-.43.44.44,0,0,0-.87,0v.6l.85-.12a2.86,2.86,0,0,1-.06-1.45,1,1,0,0,0,0-.72c-.18-.52-1-.29-.83.23.08.24-.16.67-.15.94a6.54,6.54,0,0,0,.2,1.24c.1.48.85.36.85-.12v-.6H.79a2.07,2.07,0,0,1,0,.43l.75-.31s.1-1,.1-1l0-1.71H.78c0,.5-.1,1-.09,1.55a20.08,20.08,0,0,0,.1,2.33c.07.55.94.56.87,0Z"/><path class="cls-1" d="M.73,161.92v.44a.44.44,0,0,0,.87,0c0-.21,0-.42,0-.64a.44.44,0,0,0-.87,0c0,.22,0,.43,0,.64h.87v-.44a.44.44,0,0,0-.87,0Z"/><path class="cls-1" d="M1.06,161.08a3.38,3.38,0,0,1,0-1.45A3.06,3.06,0,0,1,1.32,158a.44.44,0,0,0-.75-.44,3.39,3.39,0,0,0-.4,1.9,4.67,4.67,0,0,0,.06,1.9c.2.51,1,.29.83-.23Z"/><path class="cls-1" d="M.49,161.53a.44.44,0,0,0,0-.87.44.44,0,0,0,0,.87Z"/><path class="cls-1" d="M.49,161.18a.44.44,0,0,0,0-.87.44.44,0,0,0,0,.87Z"/><path class="cls-1" d="M.51,161.72a.44.44,0,0,0,0-.87.44.44,0,0,0,0,.87Z"/><path class="cls-1" d="M1,160.11l-.07-.19a.43.43,0,0,0-.85.12v.27H.92c0-1.11-.08-2.24.83-3,.42-.37-.19-1-.61-.61-1.12,1-1,2.29-1.09,3.65,0,.55.85.55.87,0V160l-.85.11.07.19c.19.52,1,.3.84-.23Z"/><path class="cls-1" d="M.93,158.7a.78.78,0,0,1,0-.4.44.44,0,0,0-.84-.23v.05l.2-.26,0,0,.63.49a4.16,4.16,0,0,1,1.1-2c.42-.36-.19-1-.61-.61a4.89,4.89,0,0,0-1.32,2.42.44.44,0,0,0,.64.49A.59.59,0,0,0,1,158.3l-.84-.23a2.22,2.22,0,0,0-.08.63.44.44,0,0,0,.87,0Z"/><path class="cls-1" d="M.69,159.13c.14.34,0,.68.45.83a.44.44,0,0,0,.53-.54,2,2,0,0,1,.09-.84l.14-.81c.1-.55-.74-.78-.84-.23l-.2,1.18a1.73,1.73,0,0,0,0,.93l.53-.53h0l.25.2c.09.13,0,0,0-.11a1,1,0,0,0-.09-.3c-.21-.51-1-.29-.83.23Z"/><path class="cls-1" d="M1.9,158.24a2.17,2.17,0,0,1,.53-1c.2-.24.46-.39.65-.63a.43.43,0,0,0-.61-.61,9.35,9.35,0,0,0-1.28,1.7c-.31.46.44.89.75.44a9.08,9.08,0,0,1,1.14-1.53L2.47,156c-.28.34-.63.57-.89.94A2.64,2.64,0,0,0,1,158.24c0,.55.83.55.87,0Z"/><path class="cls-1" d="M2.92,156.69a.44.44,0,0,0,0-.87.44.44,0,0,0,0,.87Z"/><path class="cls-1" d="M8.77,170.58c.07,0-.4-.19-.39-.19a4.4,4.4,0,0,0-1,0,14.13,14.13,0,0,1-2.52-.06c-.27-.06-.39.36-.11.41a12.09,12.09,0,0,0,2.33.08,4.94,4.94,0,0,1,1.33.09c.14,0,.15.12.32.1s.28-.46,0-.43Z"/><path class="cls-1" d="M5.36,172a30.71,30.71,0,0,0,6-.18c.27-.06.16-.48-.11-.42a31.21,31.21,0,0,1-5.88.17.22.22,0,0,0,0,.43Z"/><path class="cls-1" d="M8.45,170.79c1.17.14,2.36.05,3.52.24.27.05.39-.37.11-.42-1.19-.2-2.42-.11-3.63-.25-.28,0-.27.4,0,.43Z"/><path class="cls-1" d="M9.93,170.92a8.07,8.07,0,0,1,2.14,0c.84,0,1.63-.2,2.48-.11.28,0,.28-.4,0-.43-1-.11-1.94.14-2.93,0a5.43,5.43,0,0,0-1.8.09c-.28.06-.16.47.11.42Z"/><path class="cls-1" d="M13.53,170.71a3.09,3.09,0,0,0,2.25-1.24c.28-.34.63-.65.88-1a.57.57,0,0,0,.07-.74.22.22,0,0,0-.38,0c-.31.66-.63,1.33-1,2-.12.25.25.47.38.22.33-.66.65-1.33,1-2h-.38c.14.21-.75,1.06-.91,1.26a2.7,2.7,0,0,1-1.91,1.08.22.22,0,0,0,0,.43Z"/><path class="cls-1" d="M16.36,168.75c-.57-.56-.86.53-1.32.73l.26.35a1.43,1.43,0,0,1,.34-.31c.25-.11.14-.53-.12-.42a1.61,1.61,0,0,0-.52.42c-.19.18.05.44.26.34.43-.19.56-.64.92-.93L16,169l.08.07c.2.2.5-.11.31-.31Z"/><path class="cls-1" d="M10.82,172c1.89-.08,3.6,0,5-1.48.19-.21-.11-.51-.31-.31-1.27,1.33-2.95,1.28-4.68,1.36-.28,0-.28.44,0,.43Z"/><path class="cls-1" d="M13.91,170.64a11.5,11.5,0,0,0,1.14-.64l-.26-.34c-.07.07-.8.75-.92.69l.1.25h0c.17-.22-.13-.52-.31-.31a.78.78,0,0,0-.11.2.22.22,0,0,0,.1.25c.46.23,1.15-.48,1.45-.76s0-.45-.27-.34a10.53,10.53,0,0,1-1,.59c-.26.09-.15.51.11.42Z"/><path class="cls-1" d="M16.85,167.77a5.25,5.25,0,0,1,.43-1.27c.14,0,.06,1.16.06,1.29,0,.28.45.28.44,0s.19-1.57-.37-1.68-.91,1.13-1,1.54.38.4.42.12Z"/><path class="cls-1" d="M11.87,171.93c.3,0,.58-.07.88-.07a9.13,9.13,0,0,0,.93.1,5.44,5.44,0,0,0,1.46-.53,4,4,0,0,0,1.93-1.67.22.22,0,0,0-.38-.22,3.88,3.88,0,0,1-2.07,1.62,3,3,0,0,1-1.5.3c-.43,0-.82,0-1.25,0a.22.22,0,0,0,0,.44Z"/><path class="cls-1" d="M11.81,171.92a.88.88,0,0,1,.36,0l.06-.43h-.45l.05.42A6.1,6.1,0,0,1,13,172a5.09,5.09,0,0,0,1.29-.19.22.22,0,0,0-.11-.42,4,4,0,0,1-1.54.17,1.83,1.83,0,0,0-.87,0,.21.21,0,0,0,.06.42h.45c.23,0,.3-.38.06-.43a2,2,0,0,0-.48,0c-.28,0-.28.45,0,.44Z"/><path class="cls-1" d="M14,172a5.63,5.63,0,0,0,1-.41c.21-.11.06-.49-.17-.39a.69.69,0,0,0-.27.17.22.22,0,0,0,.26.35,5.64,5.64,0,0,0,.53-.31l-.22-.37-.15.11c-.14.11-.13.44.11.41A3.46,3.46,0,0,0,17,170.22a20.12,20.12,0,0,0,1.18-2.37l-.4-.17a7.33,7.33,0,0,1-.74,1.67c-.15.24.21.44.37.22l.3-.41-.38-.22a4,4,0,0,0-.35.64c-.12.25.25.47.37.21a5.67,5.67,0,0,1,.36-.63c.16-.23-.21-.44-.38-.22l-.29.41.37.22a7.11,7.11,0,0,0,.79-1.78.22.22,0,0,0-.4-.16c-.33.56-.51,1.17-.79,1.75a3.18,3.18,0,0,1-1.89,1.69l.11.41.15-.12c.21-.16,0-.52-.22-.37a4.54,4.54,0,0,1-.53.3l.26.34.09-.07-.17-.39a4.7,4.7,0,0,1-.87.36c-.27.09-.15.51.11.42Z"/><path class="cls-1" d="M17.15,166.76a17.4,17.4,0,0,1,.21-3.53c0-.27-.37-.39-.42-.11a18.5,18.5,0,0,0-.22,3.64c0,.28.45.28.43,0Z"/><path class="cls-1" d="M16.84,166.94a.22.22,0,0,0,0-.43.22.22,0,0,0,0,.43Z"/><path class="cls-1" d="M18.26,166.6c-.1-.8-.19-1.61-.26-2.41,0-.33-.31-1.89-.07-2.13l-.37-.09a9.16,9.16,0,0,1,.11,2.45c0,.62.12,1.23.1,1.85a.22.22,0,0,0,.37.16c.33-.38.15-1.23.13-1.68-.05-1.06,0-2.11,0-3.17a.22.22,0,0,0-.44,0c0,1,.05,2.07.07,3.11a.22.22,0,0,0,.43,0l-.06-3.11h-.44c.05.88-.06,1.75,0,2.63,0,.42.28,1.62,0,1.91l.37.15c0-.73-.14-1.44-.1-2.17a7.08,7.08,0,0,0-.13-2.25.22.22,0,0,0-.36-.1c-.38.39-.14,1.23-.11,1.69.07,1.06.19,2.11.31,3.16,0,.28.47.28.44,0Z"/><path class="cls-1" d="M16.91,165.33a.22.22,0,0,0,0-.44.22.22,0,0,0,0,.44Z"/><path class="cls-1" d="M18.08,166.67a.22.22,0,0,0,0-.44.22.22,0,0,0,0,.44Z"/><path class="cls-1" d="M17.14,165a17.9,17.9,0,0,1,0-2.64,14.27,14.27,0,0,1,.15-2.27c.06-.28-.36-.39-.42-.12a13.65,13.65,0,0,0-.14,2.12,20.18,20.18,0,0,0,0,2.91c0,.28.46.28.44,0Z"/><path class="cls-1" d="M17.13,161.64a14.94,14.94,0,0,0,0-3c-.05-.24-.42-.18-.42.06a17.1,17.1,0,0,0,.11,2.37c0,.28.46.28.43,0a17.1,17.1,0,0,1-.11-2.37l-.42.06a14.49,14.49,0,0,1,0,2.87c0,.28.45.28.44,0Z"/><path class="cls-1" d="M17.14,160.49v-.15a.22.22,0,0,0-.43,0v.15a.22.22,0,0,0,.43,0Z"/><path class="cls-1" d="M18.28,161.46a18,18,0,0,1-.13-3.2h-.43a11.94,11.94,0,0,1,.06,1.89c0,.24.39.31.43.06a4.38,4.38,0,0,0-.58-3.28l-.34.26a1.76,1.76,0,0,1,.55.9c.08.27.5.16.42-.11a2.12,2.12,0,0,0-.66-1.09.22.22,0,0,0-.34.26,4.07,4.07,0,0,1,.53,2.95l.43.05a12,12,0,0,0-.07-1.89.22.22,0,0,0-.43,0,18.31,18.31,0,0,0,.15,3.31c0,.28.45.16.41-.11Z"/><path class="cls-1" d="M17.1,159.07c0-.37-.22-.58-.33-.92s-.16-.84-.33-1.26l-.16.27s.49.66.47.64a6.18,6.18,0,0,1,.4.64.22.22,0,0,0,.38-.22,7.94,7.94,0,0,0-.74-1.08c-.17-.2-.33-.48-.62-.4A.22.22,0,0,0,16,157a6,6,0,0,1,.3,1.1c.07.31.37.65.35,1s.41.28.43,0Z"/><path class="cls-1" d="M17.85,158.27l0,.16c0,.27.45.28.44,0a2.7,2.7,0,0,0,0-.28c-.05-.27-.47-.16-.42.12Z"/><path class="cls-1" d="M16.31,156.22c.22.08.43.41.58.57l.58.63a.22.22,0,0,0,.31,0c.3-.35-.27-1-.49-1.32a2.74,2.74,0,0,0-1.54-1c-.27-.07-.39.35-.12.42a2.58,2.58,0,0,1,1.82,1.81l.06-.21,0,0h.31c-.38-.41-.82-1.12-1.36-1.31-.26-.09-.37.33-.11.42Z"/><path class="cls-1" d="M16.58,157.55c-1.22-2.3-3.92-2.7-6.29-2.56-.28,0-.28.45,0,.43,2.18-.13,4.78.21,5.91,2.35.13.25.51,0,.38-.22Z"/><path class="cls-1" d="M15.7,156.86c0,.28.13.38.26.62l.34-.26a4.94,4.94,0,0,1-.55-.66.22.22,0,0,0-.37.22,3.69,3.69,0,0,0,.62.75c.17.18.45-.05.34-.26a2,2,0,0,1-.21-.41c0-.28-.42-.28-.43,0Z"/><path class="cls-1" d="M9.85,155.59h3.52a.22.22,0,0,0,0-.43c-1.17,0-2.35,0-3.52,0a.22.22,0,0,0,0,.43Z"/><path class="cls-1" d="M5.12,155.62a17.36,17.36,0,0,1,2.6,0c.28,0,.27-.41,0-.43a16.13,16.13,0,0,0-2.6,0c-.28,0-.28.45,0,.43Z"/><path class="cls-1" d="M5,154.45c3.51,0,7.91-.8,10.84,1.46.22.17.53-.13.3-.3C13,153.18,8.7,154,5,154a.22.22,0,0,0,0,.43Z"/><path class="cls-1" d="M12.91,154.47a5,5,0,0,1,3.41,1.31c.21.19.52-.11.31-.3A5.4,5.4,0,0,0,12.91,154a.22.22,0,0,0,0,.44Z"/><path class="cls-1" d="M13.47,154.49a3.64,3.64,0,0,1,1.88.6,6.18,6.18,0,0,0,1.2.68c.27.08.37-.32.11-.42s-.29-.3-.43-.41a5.23,5.23,0,0,0-.69-.41,5,5,0,0,0-1.61-.48c-.27,0-.39.37-.11.42a4.42,4.42,0,0,1,1.7.59,3.17,3.17,0,0,1,.68.47c.17.15.14.16.35.24l.11-.42a13.51,13.51,0,0,1-1.61-.89,3.38,3.38,0,0,0-1.58-.41c-.28,0-.28.45,0,.44Z"/><path class="cls-1" d="M1.67,155.43l-.12.16a.21.21,0,0,0,.3.3.75.75,0,0,0,.19-.24.22.22,0,0,0-.37-.22Z"/><path class="cls-1" d="M9.24,167.45a4.18,4.18,0,0,0,3.95-3.07,4.53,4.53,0,0,0-1.75-5.22c-.67-.51-1.32.62-.66,1.12a3.25,3.25,0,0,1-1.54,5.87.65.65,0,0,0,0,1.3Z"/><path class="cls-1" d="M9,166.14c-2.66-.3-4-4.13-1.69-5.72A3,3,0,0,1,11.88,162a.65.65,0,0,0,1.25-.35,5,5,0,0,0-3-3.11c-1.46-.59-3.48.34-4.44,1.45-2.37,2.74-.17,7,3.24,7.43.83.09.82-1.21,0-1.31Z"/><path class="cls-1" d="M4.6,162c-.1,2,.63,4.54,2.79,5.18s4.32.58,5.4-1.79c.35-.75-.77-1.41-1.12-.65-.77,1.68-2.34,1.8-3.93,1.19S5.83,163.43,5.9,162c0-.84-1.26-.84-1.3,0Z"/><path class="cls-1" d="M5.48,161H5.31l.56,1a6.06,6.06,0,0,1,.51-.94,8,8,0,0,1,.76-.78c.39-.34,1.68-1,2.19-.64.69.48,1.34-.65.65-1.12-.92-.64-2.34,0-3.24.41a5.07,5.07,0,0,0-1,1,6.14,6.14,0,0,0-1,1.43.65.65,0,0,0,.56,1h.17c.83,0,.84-1.34,0-1.3Z"/><path class="cls-1" d="M6.55,159.67l-.07,0,.39.3a.21.21,0,0,1-.06-.1.64.64,0,0,0-.56-.32.75.75,0,0,0-.68.44.65.65,0,0,0,1.12.65l0,0-.46.19h0l-.56-.32a.78.78,0,0,0,.51.41c.8.25,1.15-1,.35-1.25Z"/><path class="cls-1" d="M7.29,165.8a3.25,3.25,0,0,1-.35-.39c-.09-.1-.28-.16-.34-.26.16.24,0-.24,0-.23-.1-.17-.22-.22-.26-.42-.13-.82-1.39-.47-1.25.35a1.38,1.38,0,0,0,.29.64s.18.21.11.1.09.28.07.25a1.33,1.33,0,0,0,.41.44c.15.13.26.31.43.44a.69.69,0,0,0,.92,0,.67.67,0,0,0,0-.92Z"/><path class="cls-1" d="M4.59,162.36a4.79,4.79,0,0,0,2.69,5c.76.34,1.42-.78.65-1.12a3.58,3.58,0,0,1-2-3.85c.06-.84-1.24-.83-1.3,0Z"/><path class="cls-1" d="M6.33,164.43a.82.82,0,0,1-.42-.81.66.66,0,0,0-1.28-.17l0,.14H5.83a2,2,0,0,1,0-1,.65.65,0,0,0-1.25-.34,3.46,3.46,0,0,0,0,1.63c.15.69,1,.55,1.25,0l.06-.13-1.28-.18a2.16,2.16,0,0,0,1.07,1.94c.67.49,1.32-.64.65-1.13Z"/><path class="cls-1" d="M4.53,162.69l0,.15c.15.83,1.41.48,1.26-.34l0-.15c-.15-.83-1.4-.48-1.25.34Z"/><path class="cls-1" d="M7.84,167.42a5.87,5.87,0,0,0,2.7.09.65.65,0,0,0-.17-1.28c-.71-.06-1.51.33-2.17,0s-1.4.74-.66,1.13a2.66,2.66,0,0,0,1.38.3,11.94,11.94,0,0,1,1.45-.11l-.17-1.28a4.28,4.28,0,0,1-2-.09c-.82-.16-1.17,1.09-.35,1.26Z"/><path class="cls-1" d="M13.37,162.31a.75.75,0,0,0-.23-.57c-.49-.52-1.19,0-1.09.63s0,1.46.11,2.17a.66.66,0,0,0,1.19.16,3.5,3.5,0,0,0,.11-3.31c-.31-.77-1.57-.43-1.25.34a2.37,2.37,0,0,1,0,2.31l1.19.16a6,6,0,0,1,0-1A8.49,8.49,0,0,0,13.3,162l-1.08.63,0,.05-.19-.46v.06c-.06.84,1.25.84,1.31,0Z"/><path class="cls-1" d="M11.51,167a4,4,0,0,0,1.33-1.24,7.53,7.53,0,0,0,1-2l-1.26-.35a5.22,5.22,0,0,1-.77,1.57.65.65,0,0,0,1.12.66,6.41,6.41,0,0,0,.91-1.88.65.65,0,0,0-1.26-.35A5.59,5.59,0,0,1,11.8,165a3,3,0,0,1-1,.89c-.77.34-.1,1.46.66,1.12Z"/><path class="cls-1" d="M11.2,165.77h0a.66.66,0,0,0,0,1.31h0a.66.66,0,0,0,0-1.31Z"/><path class="cls-1" d="M9.74,167.19a4.09,4.09,0,0,0,3.15-1.94c.35-.76-.77-1.42-1.12-.66a2.84,2.84,0,0,1-2,1.3c-.83.05-.84,1.35,0,1.3Z"/><path class="cls-1" d="M9,166.61a4.27,4.27,0,0,1,.51-.3l.51,0a2.56,2.56,0,0,0,1.12-.58,5.15,5.15,0,0,0,.94-1c.3-.45.36-1,.62-1.46.13-.24-.25-.46-.38-.22-.22.41-.28.87-.5,1.28a4.11,4.11,0,0,1-.9,1.05,2.33,2.33,0,0,1-.79.49,5,5,0,0,1-.76.08c-.26.06-.35.25-.59.37s0,.5.22.37Z"/><path class="cls-1" d="M12.12,166.57a1.31,1.31,0,0,0,.42-.39,3.55,3.55,0,0,1,.27-.35l-.32-.18v.07l.1-.18-.06,0,.26.34a5,5,0,0,0,.77-1.46l-.42-.11-.12.34c-.09.26.33.38.42.11l.12-.34c.09-.26-.33-.37-.42-.11a4.31,4.31,0,0,1-.65,1.26c-.14.18,0,.5.26.34l.06,0a.21.21,0,0,0,.11-.19v-.07c0-.15-.18-.3-.33-.19s-.39.59-.68.73,0,.5.21.38Z"/><path class="cls-1" d="M12.54,164a2.18,2.18,0,0,1-.09-.51.21.21,0,0,0-.42-.06l-.08.3c-.07.27.35.39.42.12l.07-.3-.42-.06a2.51,2.51,0,0,0,.1.62c.08.27.5.16.42-.11Z"/><path class="cls-1" d="M9.13,165.9a1.8,1.8,0,0,1-.61-.05l-.06.43H10.2a.22.22,0,0,0,0-.44H8.46a.21.21,0,0,0-.05.42,2.48,2.48,0,0,0,.72.07c.27,0,.28-.45,0-.44Z"/><path class="cls-1" d="M10.39,166.21a.61.61,0,0,0-.05-.3.22.22,0,0,0-.32-.13.49.49,0,0,0-.24.14c-.17.13-.08.49.17.39s.43-.24.67-.32.15-.5-.11-.42-.44.23-.68.33l.17.39a.72.72,0,0,1,.24-.14L9.92,166l0,.19a.22.22,0,0,0,.44,0Z"/><path class="cls-1" d="M8.66,166.29a1.73,1.73,0,0,0-.33-.47l-.21.36.16,0,.17-.39a2.54,2.54,0,0,1-1.07-.55c-.26-.19-.44-.43-.68-.64s-.51.11-.3.3.21.31.35.44.35.25.51.38a2.48,2.48,0,0,0,1.08.49c.22,0,.4-.3.16-.4a1.14,1.14,0,0,0-.26-.09.22.22,0,0,0-.21.36,1.36,1.36,0,0,1,.25.39c.12.25.49,0,.38-.22Z"/><path class="cls-1" d="M8.31,165.94c-.12-.2-.3-.23-.49-.37l-.21.36c.17,0,.3.14.47.18s.39-.36.12-.42-.31-.13-.47-.18-.39.23-.21.36.35.18.42.29.52,0,.37-.22Z"/><path class="cls-1" d="M7,160.81c.45,0,.65-.46,1.05-.64a2.93,2.93,0,0,1,.83-.18c.28,0,.73-.26,1-.08s.45-.22.22-.38c-.46-.32-1.09,0-1.6.06a2.45,2.45,0,0,0-.64.18c-.23.11-.64.59-.85.61s-.28.46,0,.43Z"/><path class="cls-1" d="M6.72,160.54a5.12,5.12,0,0,0-1,2.28,4.43,4.43,0,0,0,.93,2.44c.16.23.54,0,.38-.22a3.66,3.66,0,0,1-.84-2.4,5.33,5.33,0,0,1,.89-1.88.22.22,0,0,0-.38-.22Z"/><path class="cls-1" d="M7.33,165.65c0-.23-.1-.32-.23-.51l-.29.3.06,0a.21.21,0,0,0,.32-.18.33.33,0,0,0-.11-.31c-.18-.21-.48.1-.3.31h0l.33-.19-.06,0c-.18-.11-.42.12-.3.3s.17.22.17.29c0,.28.44.28.43,0Z"/><path class="cls-1" d="M12.56,166.13a.22.22,0,0,0,0-.44.22.22,0,0,0,0,.44Z"/><path class="cls-1" d="M9.45,160a1.88,1.88,0,0,0,.63.15.22.22,0,0,0,0-.43,2.35,2.35,0,0,1-.52-.14c-.27-.06-.38.36-.11.42Z"/><path class="cls-1" d="M11.26,159.5a1.16,1.16,0,0,0-.45-.85,2.3,2.3,0,0,0-1.18-.3.22.22,0,0,0,0,.44,1.76,1.76,0,0,1,.78.16.71.71,0,0,1,.43.67c0,.27.46.16.42-.12Z"/><path class="cls-1" d="M13.8,162.27l-.23-.61-.4.17a1.3,1.3,0,0,0,.21.31c.13.16.44,0,.36-.21A5.78,5.78,0,0,0,11,158.68c-.25-.12-.47.25-.22.37a5.4,5.4,0,0,1,2.57,3l.37-.22-.15-.22a.21.21,0,0,0-.39.17l.23.61c.1.26.52.14.42-.12Z"/><path class="cls-1" d="M13.61,161.52l-.33-.67c-.11-.23-.45-.07-.4.16a1.34,1.34,0,0,0,.23.5.22.22,0,0,0,.4-.11,1.86,1.86,0,0,0-.48-1.13,3.13,3.13,0,0,0-.42-.47c-.12-.11-.35-.22-.4-.37l-.4.17a1.19,1.19,0,0,0,.33.34c.21.15.43-.16.27-.34a3,3,0,0,0-.85-.62c-.25-.12-.47.26-.22.37a2.63,2.63,0,0,1,.76.56l.26-.34-.17-.19c-.13-.2-.48-.08-.4.17s.31.37.52.55.81.86.77,1.3l.4-.11a.7.7,0,0,1-.18-.39l-.39.17.33.67c.12.25.5,0,.37-.22Z"/><path class="cls-1" d="M6.26,163.58a1.75,1.75,0,0,0,0-.56,2.41,2.41,0,0,1,.14-1L6,161.92l-.17,1c0,.27.37.39.42.11l.17-1a.22.22,0,0,0-.42-.11,3.41,3.41,0,0,0-.15.72c0,.27.07.56,0,.82s.37.39.42.12Z"/><path class="cls-1" d="M7,160.49a.6.6,0,0,0-.41.33c-.12.21.18.46.34.27L7,161c.17-.22-.13-.53-.31-.31l-.08.1L7,161c0-.07.06-.11.15-.13.28,0,.16-.46-.11-.42Z"/><path class="cls-1" d="M7.72,160.43a4.75,4.75,0,0,1,2.73-.4c.28.05.39-.37.12-.42a5.21,5.21,0,0,0-3.06.45c-.26.11,0,.48.21.37Z"/><path class="cls-1" d="M9.66,159.67a1.94,1.94,0,0,0-.59,0c-.28,0-.28.46,0,.43a1.29,1.29,0,0,1,.48,0c.27,0,.39-.37.11-.42Z"/><path class="cls-1" d="M10.39,159.84l-.3,0a.22.22,0,0,0,0,.44l.19,0a.22.22,0,0,0,.11-.42Z"/><path class="cls-1" d="M10.35,160.26a6,6,0,0,1,1,.68c.21.18.52-.12.31-.3a5.51,5.51,0,0,0-1.06-.75c-.25-.13-.47.24-.22.37Z"/><path class="cls-1" d="M11.7,160.78c-.16-.14-.31-.29-.46-.44s-.51.12-.31.31l.46.44c.21.19.52-.12.31-.31Z"/><path class="cls-1" d="M10.47,160.35a.22.22,0,0,0,0-.44.22.22,0,0,0,0,.44Z"/><path class="cls-5" d="M10,195.35s.5,2.25-2.47,3H1V187.91H7.53a2.7,2.7,0,0,1,2.07,2.42,2.33,2.33,0,0,1-1.51,2.44S9.91,193,10,195.35Z"/><path class="cls-5" d="M6.44,192.21c1.92-1.62-.12-2.59-.12-2.59h-3v2.59Z"/><path class="cls-5" d="M6.52,196.66c2.77-1.63,0-2.91,0-2.91H3.31v2.91Z"/><path class="cls-5" d="M12.55,193.75h3.53s-.34-1.76-1.77-1.7S12.55,193.75,12.55,193.75Z"/><path class="cls-5" d="M14.31,190.7a3.91,3.91,0,0,0-3.8,3.19s-.87,4.45,3.8,4.71c0,0,3.08.4,3.76-2.51V196H16.13a1.74,1.74,0,0,1-1.82,1.09,2,2,0,0,1-1.76-2.08h5.76A4,4,0,0,0,14.31,190.7Z"/><rect class="cls-6" x="11.93" y="188.58" width="4.58" height="1.04"/><path class="cls-1" d="M1.74,189.4c1.43.19,3.4-.35,4.74.09.58.2,1.21.42,1.17,1.18s-.2.4-.56.91-.74.92-.68,1.46c.11,1.12,1.76,1.17,1.48,2.54s-2,1.26-2.88,1.29a9.92,9.92,0,0,1-2-.06c-.47-.56-.06-3.49-.06-4.2,0-1,.62-3.84-1.06-3.86a.73.73,0,0,0-.72.72c-.23,2.14.39,4.25.19,6.4-.08.91,1.35.91,1.43,0,.21-2.15-.42-4.26-.19-6.4l-.71.71c-.61,0-.39,5.14-.38,5.76,0,.95-.05,1.95,1,2.28A10.7,10.7,0,0,0,5,198.3,6.06,6.06,0,0,0,7.29,198a2.67,2.67,0,0,0,2-2.41A3.48,3.48,0,0,0,8.94,194c-.08-.17-1-1.18-1-1.19,0-.19.9-.64,1-.9a1.87,1.87,0,0,0,.16-1.1c-.26-4-4.65-2.49-7.37-2.84-.91-.12-.9,1.32,0,1.43Z"/><path class="cls-1" d="M2.81,193.73q2.06-.12,4.11-.06c.92,0,.92-1.41,0-1.43-1.37,0-2.74,0-4.11,0-.91.06-.92,1.49,0,1.44Z"/><path class="cls-1" d="M3.33,192.53c-.2-1,0-2.06-.13-3.11l-1.33.37c.15.24,0,.72,0,1s0,.83,0,1.25c0,.91,1.47.92,1.43,0,0-.59,0-1.17,0-1.75a2.07,2.07,0,0,0-.24-1.22c-.35-.56-1.41-.38-1.34.36s0,1.2,0,1.79a10.66,10.66,0,0,0,.19,1.7c.17.91,1.56.53,1.39-.38Z"/><path class="cls-1" d="M2,188.51l-.21,0,.69.53-.08-.2c-.27-.71-1.42-.67-1.4.19l0,2,1.41-.2c-.54-1.92,1.91-1.39,3-1.32s2.42.58,1.8,1.84c-.41.83.83,1.55,1.24.73a2.19,2.19,0,0,0-.13-2.62A2.91,2.91,0,0,0,5.68,188c-1.18-.07-2.73-.48-3.75.28a2.54,2.54,0,0,0-.83,2.85A.72.72,0,0,0,2.51,191l0-2-1.41.2.08.19a.75.75,0,0,0,.69.53l.21,0c.91.1.91-1.33,0-1.43Z"/><path class="cls-1" d="M1.86,193.48a23.64,23.64,0,0,0,0,3.57c.05.91,1.48.92,1.43,0a25,25,0,0,1,0-3.57c.08-.92-1.36-.92-1.43,0Z"/><path class="cls-1" d="M1,191.17q0,3.22,0,6.45a.72.72,0,0,0,1.43,0c.06-2.15.07-4.3,0-6.45a.72.72,0,0,0-1.43,0Z"/><path class="cls-1" d="M8.65,197A12,12,0,0,1,9,195.64a.72.72,0,0,0-1.39-.38A16.93,16.93,0,0,0,7.21,197c0,.92,1.4.92,1.44,0Z"/><path class="cls-1" d="M8,197.38c-.12.17-.13.2,0,.08l.2-.21c.63-.68-.38-1.69-1-1a2.32,2.32,0,0,0-.55.77c-.32.86,1.06,1.23,1.39.38Z"/><path class="cls-1" d="M7.75,198.26a2.8,2.8,0,0,0,2.18-2.44,3,3,0,0,0-1.56-2.92l-.56,1.31c.5.15.63.64.68,1.1.08.91,1.52.92,1.43,0a2.58,2.58,0,0,0-1.72-2.49c-.76-.23-1.31,1-.56,1.31a1.48,1.48,0,0,1,.86,1.45,1.35,1.35,0,0,1-1.14,1.3.72.72,0,0,0,.39,1.38Z"/><path class="cls-1" d="M9.58,190.55a2,2,0,0,0-.32-1.28,2.43,2.43,0,0,0-.44-.52,1,1,0,0,0-.29-.2.27.27,0,0,0-.18-.05c-.17,0-.13,0,.14.05l-1.13.87.4.31c.71.5,1.36-.54.87-1.12-.21-.25-.44-.26-.71-.39a3.11,3.11,0,0,0-.61-.29l-.19,1.41s.07.07.17.15a.9.9,0,0,0,.45.21.74.74,0,0,0,.88-.5.72.72,0,0,0-.5-.88c.08,0,0-.07,0-.08a1.9,1.9,0,0,0-.33-.22,1.32,1.32,0,0,0-.62-.11c-.78,0-1,1.25-.19,1.4.1,0,.19.12.28.17s.36.09.4.14l.87-1.13-.1-.09a.72.72,0,0,0-1.13.87,1.11,1.11,0,0,0,1,.65l-.51-.21a.89.89,0,0,1,.39.84c-.08.92,1.35.91,1.44,0Z"/><path class="cls-1" d="M6.92,192.47l.06-.35c.18-.1,0-.37-.16-.27a.5.5,0,0,0-.2.7c.07.19.38.11.3-.08Z"/><path class="cls-1" d="M4,193.74l2,.06c.94,0,1.31.52,1.8,1.28.11.17.39,0,.28-.17a3,3,0,0,0-1.34-1.34A10.73,10.73,0,0,0,4,193.42a.16.16,0,0,0,0,.32Z"/><path class="cls-1" d="M1.44,188.56a.88.88,0,0,0-.2-.61.16.16,0,0,0-.27.11l0,.57c0,.14.23.24.3.08s.06-.21.1-.29,0-.17.25-.19l1.17,0a.16.16,0,0,0,0-.32l-.81,0a3,3,0,0,0-.67,0c-.29.1-.2.37-.31.62l.29.08,0-.57-.27.11a.49.49,0,0,1,.1.39c0,.2.33.2.32,0Z"/><path class="cls-1" d="M7.23,188.34c-.21-.11-.37-.4-.62-.4a.16.16,0,0,0,0,.32s.4.32.46.35.34-.18.16-.27Z"/><path class="cls-1" d="M8.68,188.7c0-.35-.42-.52-.73-.6a.16.16,0,0,0-.08.31c.19.05.47.14.5.37s.34.12.31-.08Z"/><path class="cls-1" d="M7.92,192.75a.55.55,0,0,0,.45-.15,4.4,4.4,0,0,0,.52-.43,2.79,2.79,0,0,0,.73-1.5c0-.18-.27-.21-.31,0a4.14,4.14,0,0,1-.7,1.41c-.13.16.15.32.27.16a4,4,0,0,0,.73-1.49l-.31,0a2.43,2.43,0,0,1-.58,1.18c-.11.15-.63.6-.8.58s-.2.3,0,.32Z"/><path class="cls-1" d="M3.13,197a27.11,27.11,0,0,0,4.13,0c.2,0,.2-.34,0-.32a27.11,27.11,0,0,1-4.13,0c-.2,0-.2.3,0,.32Z"/><path class="cls-1" d="M6.76,196.9l.12,0c.2,0,.11-.34-.09-.31l-.12,0c-.2,0-.11.35.09.31Z"/><path class="cls-1" d="M3.31,189.79c.72-.06,1.45-.12,2.18-.13a1.7,1.7,0,0,1,1.27.34,1.14,1.14,0,0,1,.29,1.39c-.2.3.28.58.49.28A1.73,1.73,0,0,0,7,189.44c-1-.67-2.55-.31-3.64-.21-.36,0-.36.59,0,.56Z"/><path class="cls-1" d="M4.9,189.56a7.54,7.54,0,0,1,1.16.08c.2,0,.28-.28.08-.31a8.52,8.52,0,0,0-1.24-.09.16.16,0,0,0,0,.32Z"/><path class="cls-1" d="M1.14,198.39a55,55,0,0,1,6.41-.1l0-.31c-.57.11-1.15-.09-1.72,0a.16.16,0,0,0,0,.31,1.22,1.22,0,0,0,.63,0c.2,0,.21-.33,0-.32-1.13,0-2.27,0-3.41,0a.16.16,0,0,0,0,.32c1.14,0,2.28,0,3.41,0V198l-.55,0v.31c.56-.12,1.16.08,1.73,0,.18,0,.12-.3,0-.32a55,55,0,0,0-6.41.1c-.2,0-.2.33,0,.32Z"/><path class="cls-1" d="M15.66,194.5a.24.24,0,0,0,0-.48.24.24,0,0,0,0,.48Z"/><path class="cls-1" d="M17.09,193.94l-3.88.25c-.31,0-.31.49,0,.48.91,0,1.82.05,2.73,0a4.22,4.22,0,0,0,1.78-.27c.69-.42-.14-1.46-.52-1.84a.24.24,0,0,0-.37.29,5.48,5.48,0,0,1,.51,1.31l.43-.19a5.32,5.32,0,0,0-.94-1.48c-.19-.21-.5.05-.38.29l.75,1.43.42-.24A11.42,11.42,0,0,1,17,192.8c-.13-.28-.54,0-.41.24a12.23,12.23,0,0,0,.65,1.18.24.24,0,0,0,.42-.24l-.76-1.43-.37.28a5.32,5.32,0,0,1,.87,1.39c.11.26.5.07.44-.18a6,6,0,0,0-.56-1.42l-.37.29a1.92,1.92,0,0,1,.42.52c.26.27.23.48-.08.63s-1.09.14-1.44.15c-.86,0-1.71,0-2.56,0v.48l3.88-.25c.31,0,.31-.5,0-.48Z"/><path class="cls-1" d="M17.7,193.49a3.36,3.36,0,0,0-1.09-1.94.8.8,0,0,0-1.13,1.13c.17.2,1.1,1.09,1,1.36l.55-.55c.08,0,.06,0-.07,0a.8.8,0,0,0,0,1.59c.92,0,1.28-.71,1-1.54a6.26,6.26,0,0,0-1.38-2l-1.13,1.13a2,2,0,0,1,.68,1.23.8.8,0,0,0,1,.56.83.83,0,0,0,.56-1Z"/><path class="cls-1" d="M10.59,194.6c.2,1.65.76,3.12,2.39,3.75a4.16,4.16,0,0,0,4.52-1c.7-.76-.43-1.89-1.12-1.13a2.54,2.54,0,0,1-2.87.63,2.55,2.55,0,0,1-1.32-2.24c-.12-1-1.72-1-1.6,0Z"/><path class="cls-1" d="M12.26,194.87a3.45,3.45,0,0,1,.67-2.09c.58-.85-.8-1.65-1.37-.8a4.79,4.79,0,0,0-.9,2.89c.06,1,1.65,1,1.6,0Z"/><path class="cls-1" d="M16.23,192.18A2.15,2.15,0,0,0,14.31,191a2.11,2.11,0,0,0-2.05,1.1.4.4,0,0,0,.45.58,3.27,3.27,0,0,0,.9-.44c.08-.05,1.28-.57,1.4-.22l.59-.45a1,1,0,0,0-.43-.18c-.5-.11-.72.66-.21.77l.24.1a.4.4,0,0,0,.58-.45c-.21-.63-.76-.65-1.35-.64a1.89,1.89,0,0,0-.85.11,7.25,7.25,0,0,1-1.08.63l.45.59a1.31,1.31,0,0,1,1.16-.71c.33,0,1.22.16,1.35.56s.93.27.77-.21Z"/><path class="cls-1" d="M12,194.92a19.43,19.43,0,0,1,2.53.06c.86,0,1.69-.13,2.54-.15a.4.4,0,0,0,0-.79c-.85,0-1.68.18-2.54.14a19.43,19.43,0,0,0-2.53-.05c-.51,0-.52.84,0,.79Z"/><path class="cls-1" d="M12.23,194.59l4.62.13c.52,0,.52-.78,0-.8l-4.62-.13a.4.4,0,0,0,0,.8Z"/><path class="cls-1" d="M12.69,194a.62.62,0,0,1,0-.63c.19-.47-.58-.68-.77-.21a1.36,1.36,0,0,0,.11,1.24.39.39,0,0,0,.68-.4Z"/><path class="cls-1" d="M12.27,197.06a1.71,1.71,0,0,1-.74-1.3c-.08-.36-.7-.39-.76,0a1.61,1.61,0,0,0,0,.69l.73-.31a3.75,3.75,0,0,1,.27-3.27c.26-.38,3.35-2.4,3.42-.85,0,.51.82.51.8,0-.1-2.12-3.05-1.15-4.07-.43a4.15,4.15,0,0,0-1.11,5c.23.41.81.12.73-.31V196h-.76a2.52,2.52,0,0,0,1.09,1.78c.44.27.84-.42.41-.69Z"/><path class="cls-1" d="M14.84,191.23h-.12a.4.4,0,0,0,0,.8h.12a.4.4,0,0,0,0-.8Z"/><path class="cls-1" d="M16.9,196.65a.47.47,0,0,0-.47-.63c-.44,0-.53.5-.66.83l.27-.28H16l.45.18,0,0c-.3-.41-1,0-.69.4l0,0a.42.42,0,0,0,.45.18.39.39,0,0,0,.3-.19l.09-.21c.08-.13.06-.17-.08-.13l-.35-.19,0,.05,0-.3v.06a.39.39,0,0,0,.76.21Z"/><path class="cls-1" d="M18,196.42v-.06a.38.38,0,0,0-.28-.28l-.05,0-.11.79h.05a.4.4,0,0,0,0-.8H17.5a.4.4,0,0,0-.11.78l.06,0-.28-.28v.06c.09.51.85.29.77-.21Z"/><path class="cls-1" d="M12.05,195l5.76.07a.4.4,0,0,0,0-.8l-5.76-.07a.4.4,0,0,0,0,.8Z"/><path class="cls-1" d="M13.47,194.67a3.82,3.82,0,0,1,.56-.14,5.77,5.77,0,0,1,.72,0c.56,0,1.13,0,1.69-.09s.51-.84,0-.8a17.81,17.81,0,0,1-1.93.09,4.28,4.28,0,0,0-.8,0,4,4,0,0,0-.45.15c-.5.11-.29.88.21.77Z"/><path class="cls-1" d="M18.36,194.68A4,4,0,0,0,15.68,191l-.11.78,0,0,.45-.58a1.35,1.35,0,0,1-.47-.26c-.41-.3-.81.39-.4.69a2.69,2.69,0,0,0,.65.34.4.4,0,0,0,.45-.59.66.66,0,0,0-.7-.37.4.4,0,0,0-.1.78,3.2,3.2,0,0,1,2.09,2.89c0,.51.82.51.8,0Z"/><path class="cls-1" d="M13.41,197.1c-.06-.31-.32-.51-.48-.77a2.26,2.26,0,0,1-.31-1.3.4.4,0,0,0-.8,0,3.21,3.21,0,0,0,.22,1.3,3.25,3.25,0,0,0,.28.52c.09.13.29.3.32.46.1.5.87.29.77-.21Z"/><path class="cls-1" d="M17.75,196.65a.32.32,0,0,0,0-.64.32.32,0,0,0,0,.64Z"/><path class="cls-1" d="M17.41,193a1.63,1.63,0,0,0-.2-1.09,1.42,1.42,0,0,0-.35-.34c-.05,0-.48-.29-.42-.1l-.31.4h.07l-.08-.62.18.08c-.17-.37-.72-.05-.55.32a.41.41,0,0,0,.54.21.32.32,0,0,0-.09-.62h-.07a.34.34,0,0,0-.31.41c.08.26.24.26.47.35.51.2.49.53.48,1a.32.32,0,0,0,.64,0Z"/><rect class="cls-1" x="2.2" y="216.73" width="2.82" height="8.49"/><ellipse class="cls-1" cx="3.62" cy="214.1" rx="1.59" ry="1.47"/><polygon class="cls-1" points="9.4 225.22 6.58 225.22 6.58 216.73 9.4 216.73 9.4 217.96 9.4 225.22"/><path class="cls-1" d="M9.4,218A2.72,2.72,0,0,1,12,216.53a3,3,0,0,1,2.6,1.3,7,7,0,0,1,.65,1.79c0,.49,0,5.6,0,5.6H12.37v-4.83s0-1.66-1.42-1.63a1.54,1.54,0,0,0-1.54,1.32Z"/><line class="cls-7" x1="10.51" y1="84.33" x2="10.51"/></g></g></svg>