<svg xmlns="http://www.w3.org/2000/svg" viewBox="0 0 66.15 810.08"><defs><style>.cls-1{fill:#1d1d1b;}.cls-2,.cls-3,.cls-4,.cls-5,.cls-7{fill:none;}.cls-2,.cls-3,.cls-4,.cls-5,.cls-6,.cls-7{stroke:#1d1d1b;stroke-miterlimit:10;}.cls-2{stroke-width:0.38px;}.cls-3{stroke-width:0.37px;}.cls-4{stroke-width:0.23px;}.cls-5{stroke-width:0.57px;}.cls-6{fill:#6300ff;stroke-width:4.05px;}.cls-7{stroke-width:2px;}</style></defs><title>icons_1</title><g id="Layer_2" data-name="Layer 2"><g id="Layer_1-2" data-name="Layer 1"><path class="cls-1" d="M25.13,446c.8-8.83,11.08-10.91,11.08-10.91h11.4V446H39.9a4.39,4.39,0,0,0-3.37,3.3l.16,8.43H47.61l-1.77,11.4H36.69v27.95H25.13V468.8H15.81V457.73h9.32Z"/><path class="cls-2" d="M50.31,554l-34.64.09C2.89,556.51.19,569,.19,569v32s.16,13.55,15.48,17.65l34.64-.09c15.31-4.09,15.47-17.65,15.47-17.65v-32S63.08,556.43,50.31,554ZM60,598.33s-.14,11.16-12.75,14.53l-28.53.07C6.11,609.56,6,598.4,6,598.4V572.05s2.22-10.28,12.74-12.28l28.53-.07C57.77,561.7,60,572,60,572Z"/><path class="cls-2" d="M47.25,559.7l-28.53.07C8.2,561.77,6,572.05,6,572.05V598.4s.13,11.16,12.74,14.53l28.53-.07C59.86,609.49,60,598.33,60,598.33V572S57.77,561.7,47.25,559.7Z"/><circle class="cls-3" cx="32.99" cy="586.2" r="16.86"/><circle class="cls-4" cx="32.99" cy="586.2" r="10.48"/><circle class="cls-1" cx="49.84" cy="569.34" r="3.97"/><path class="cls-1" d="M8.77,560.92a11.58,11.58,0,0,1,4.57-1.71l-1.11-2.67c-1.59,1.86-3.66,3.14-5.1,5.15A1.57,1.57,0,0,0,8.89,564c4.75-1.92,8.75-4.54,13.89-5.49,1.89-.35,1.17-2.87-.41-3.07A19,19,0,0,0,13,556.86l1.2,2.85a9.73,9.73,0,0,1,3.41-1.81,1.58,1.58,0,0,0,.37-2.85,4.28,4.28,0,0,0-3-.56l1.11,2.67h0l-.82-3a29,29,0,0,0-6,2.44c-1.52.83-.47,3.53,1.2,2.86l.62-.25L10,556.36c-.92.64-1.69.91-2.55,1.62-1.35,1.12.44,3.45,1.9,2.45l1.76-1.22-1.89-2.45-2,1.54,2.29,1.76-.43.47-2.29-1.76c-.61,1.8-2.06,3.42-2.9,5.12A36.58,36.58,0,0,0,2,568.34c-.6,1.8,1.88,2.51,2.86,1.2a29.54,29.54,0,0,1,7.55-7.45c1.67-1.09.11-3.8-1.58-2.69A34.24,34.24,0,0,0,2.2,568l2.85,1.21c1.16-3.44,3.55-6.22,4.69-9.57a1.58,1.58,0,0,0-2.3-1.76,2,2,0,0,0-1,1.39c-.17,1.16,1.07,2.68,2.29,1.76.9-.67,1.78-1.34,2.67-2,1.39-1.07-.44-3.45-1.89-2.45l-1.77,1.22,1.89,2.45c.47-.39,1.4-.77,1.92-1.13,1.35-.93.55-3.55-1.2-2.85l-.62.25,1.2,2.85a24.89,24.89,0,0,1,5.22-2.13c2-.56,1.11-3.28-.82-3A1.88,1.88,0,0,0,14,555c-.75.91-.38,2.83,1.1,2.66a1.62,1.62,0,0,1,1.39.13l.37-2.85A12.83,12.83,0,0,0,12.65,557c-1.25,1-.62,3.54,1.21,2.85a17.14,17.14,0,0,1,8.51-1.33L22,555.48c-5.2,1-9.08,3.54-13.89,5.49l1.76,2.29c1.28-1.76,3.21-2.87,4.62-4.51.78-.91.36-2.82-1.1-2.66a15.47,15.47,0,0,0-6.15,2.13c-1.75,1-.18,3.67,1.58,2.7Z"/><path class="cls-1" d="M38.68,555.37l-12.75-.11a1.56,1.56,0,0,0,0,3.12c4.54.09,9.07-.62,13.6-.3,3.3.23,6.54.69,9.83.08,1.55-.29,1.42-2.64,0-3-5.51-1.45-10.07,1.11-15.5,1.39-5.94.31-10-2.91-16-.93-1.9.63-1.09,3.64.83,3,5.32-1.76,9.83,1.27,15.18,1,5-.22,9.59-2.84,14.67-1.5v-3c-3.6.67-7.22-.21-10.81-.27-3.94-.06-7.85.46-11.79.38v3.12l12.75.11a1.56,1.56,0,0,0,0-3.12Z"/><path class="cls-1" d="M1.53,603.92c2.2,3.25,3.63,7,7,9.24,1.6,1.05,2.93,2.5,4.72,3.23a22.13,22.13,0,0,0,6.27,1.1c2,.17,2-2.9,0-3.13s-3.09-1.52-4.69-2.37a14.75,14.75,0,0,1-4-3,32.85,32.85,0,0,1-5.1-7.51C4.73,599.66,2,601.24,3,603s1.29,3.07,2.54,4.53a56.82,56.82,0,0,0,4.58,5.11c1.44,1.31,3.17,2,4.74,3.12a9.26,9.26,0,0,0,4.67,1.72v-3.13c-3.88-.32-6.37-1.7-9.42-3.9-2.67-1.92-4-5.4-5.87-8.11-1.11-1.66-3.82-.1-2.69,1.57Z"/><path class="cls-1" d="M19.23,559.53c4.58.08,9.17-.19,13.74.31,2,.21,2-2.91,0-3.12-4.57-.5-9.16-.23-13.74-.31-2,0-2,3.08,0,3.12Z"/><path class="cls-1" d="M16.4,557.33c4.65.22,9.59.93,14.23.63a65,65,0,0,1,17.31.9c2,.38,2.8-2.63.83-3a57.19,57.19,0,0,0-16.55-1.17c-5.14.47-10.65-.22-15.82-.47-2-.1-2,3,0,3.12Z"/><path class="cls-1" d="M49.81,559.39c2.79-.28,6.36.13,8.37,2.38,1.61,1.81,1.41,4.81,2.32,6.93s4,3.4,4.24.18-4.54-6.28-6.51-8.31a15.36,15.36,0,0,0-9.75-4.3c-2-.18-2,3,0,3.12a12.17,12.17,0,0,1,7.65,3.53c.64.69,5.55,5.41,5.67,5.32l1.52-.4c-.39-.14-1.2-5.24-1.49-6a7.28,7.28,0,0,0-2.48-3.17,13.6,13.6,0,0,0-9.54-2.42c-2,.2-2,3.33,0,3.12Z"/><path class="cls-1" d="M63.73,602.88c.68-7.32.54-14.6.65-21.93,0-2-3.09-2-3.12,0-.11,7.33,0,14.61-.65,21.93-.18,2,2.94,2,3.12,0Z"/><path class="cls-1" d="M61.92,569.31c-1.1,8.19-1.86,16.34-1,24.6.2,2,3.33,2,3.13,0-.83-8.26-.07-16.41,1-24.6.26-2-2.86-2-3.12,0Z"/><path class="cls-1" d="M65,584.08c.8-3.24,1.27-7.87,0-11-.87-2.06-2.13-3.53-2.46-5.92-.15-1.12,0-2.1-1.11-2.73a1.56,1.56,0,0,0-1.58,2.69c-.72-.42.05,3,.1,3.15a12.27,12.27,0,0,0,1.46,3c1.63,2.75,1.39,6.94.63,10-.48,2,2.53,2.78,3,.83Z"/><path class="cls-1" d="M58.09,612.45a12,12,0,0,0,6.42-9.62c.17-1.48-1.75-1.89-2.66-1.11-1.81,1.55-2.92,3.74-4.17,5.73a13.87,13.87,0,0,1-7.48,6.18,1.56,1.56,0,0,0,.83,3c4.09-.86,9.7-2.54,9.81-7.54a1.57,1.57,0,0,0-2.66-1.1,32.86,32.86,0,0,1-8.75,5.4c-1.6.76-.48,3.38,1.2,2.85,3.76-1.19,5.72-4.13,8.55-6.64,1.16-1,2.08-1.48,2.64-2.92.79-2,.19-5,2.5-6.16H62.75l-.31,1.35,2.86.37-.07-.87c.11-2-3-2-3.12,0a4.66,4.66,0,0,0,.18,1.7,1.58,1.58,0,0,0,2.85.38c1.07-1.52,1.28-4-.32-5.29s-3.1.31-4.14,1.57c-1.65,2-.81,4.77-2.43,6.63-1,1.1-2.3,2-3.32,3.1-1.52,1.6-3,3.09-5.13,3.77l1.2,2.85a35.18,35.18,0,0,0,9.39-5.88l-2.67-1.11c-.07,3.12-5.14,4-7.52,4.53l.83,3a17.07,17.07,0,0,0,7.4-4.65c2.07-2.51,3.12-5.91,5.63-8.06l-2.67-1.1a8.83,8.83,0,0,1-4.88,6.93c-1.77.94-.2,3.63,1.58,2.69Z"/><path class="cls-1" d="M31.71,616.6q4.47,0,8.95,0c1.92,0,6.24-.69,8,.17l.38-2.85c-3,.74-6.13.67-9.2,1-2.88.31-5.5.63-8.32-.24-1.92-.6-2.75,2.41-.83,3,3.06,1,6,.7,9.15.36,3.36-.36,6.74-.3,10-1.11a1.58,1.58,0,0,0,.37-2.85c-2.19-1.09-5.1-.58-7.48-.59-3.67,0-7.34,0-11,0a1.56,1.56,0,0,0,0,3.12Z"/><path class="cls-1" d="M17,616.3c5.53.27,11-.66,16.29,1.52l.41-3.06c-1.94,0-3.9-.06-5.84.13-1.68.16-6,1.41-7.1.35l-1.1,2.66c6.9-.91,14.14,1,21.18.31,2-.21,2-3.33,0-3.12-7,.72-14.28-1.22-21.18-.31-1.22.17-2.21,1.65-1.1,2.67,1.51,1.39,2.66,1.35,4.76,1.21,3.52-.24,6.83-.78,10.38-.78,1.89,0,2-2.43.42-3.07-5.54-2.3-11.29-1.34-17.12-1.63-2-.1-2,3,0,3.12Z"/><path class="cls-1" d="M7,613.94c3.84,2,7.69,4.57,12.13,4.64,2,0,2-3.09,0-3.12a16.4,16.4,0,0,1-10-3.54c-1.6-1.22-3.15,1.49-1.57,2.69a19.1,19.1,0,0,0,11.57,4v-3.12c-3.78-.06-7.29-2.53-10.55-4.22-1.79-.92-3.37,1.77-1.58,2.7Z"/><path class="cls-1" d="M12.74,617.53l-.2-.09-.56-.56c.51.88,1.49,1.09,2.39,1.4a4,4,0,0,0,2.68.2,1.6,1.6,0,0,0,1.09-1.92,1.57,1.57,0,0,0-1.92-1.09c-.31.12-.56-.05-.88-.16-.47-.15-.94-.3-1.39-.48l.69.4c.1.19,0,.11-.21-.24a5.32,5.32,0,0,0-.47-.36,2.14,2.14,0,0,0-1.22-.22A1.61,1.61,0,0,0,11.18,616a1.57,1.57,0,0,0,1.56,1.56Z"/><path class="cls-1" d="M18.35,613.56c-1.08-1.15-2.47-1.53-3.82-2.23-.26-.13-.49-.3-.75-.44s-.92-.59-.36,0a5.36,5.36,0,0,0-.72-.79c-.32-.24-.76-.27-1-.61-1.2-1.58-3.91,0-2.7,1.58a7.3,7.3,0,0,0,1.75,1.53c0-.22,0-.19.16.09l.24.32a4.41,4.41,0,0,0,1,.58c1.28.68,3,1.14,4,2.21,1.38,1.47,3.58-.74,2.21-2.21Z"/><path class="cls-1" d="M31.54,613.54s-1.21-.65-1.41-.69a19,19,0,0,0-3.62,0c-2.89,0-6,.34-8.87-.22-1-.19-1.4,1.31-.42,1.51a43.6,43.6,0,0,0,8.32.27,18.32,18.32,0,0,1,4.85.3c.48.13.58.44,1.15.39,1-.1,1-1.66,0-1.56Z"/><path class="cls-1" d="M19.27,618.7l11.36,0a47.68,47.68,0,0,0,10.2-.64c1-.22.56-1.72-.42-1.51-3.51.78-7.15.58-10.72.59l-10.42,0a.78.78,0,0,0,0,1.56Z"/><path class="cls-1" d="M30.39,614.3c4.2.49,8.5.16,12.65.87,1,.17,1.41-1.33.42-1.5-4.3-.74-8.73-.43-13.07-.93-1-.12-1,1.45,0,1.56Z"/><path class="cls-1" d="M35.72,614.76c2.89-.59,5.26-.09,8.17,0s5.54-.76,8.45-.42c1,.12,1-1.44,0-1.56-3.43-.4-6.71.61-10.09.2a21,21,0,0,0-7,.23c-1,.2-.56,1.71.42,1.51Z"/><path class="cls-1" d="M48.68,614c3.13,0,6.19-2.14,8.09-4.48,1-1.21,2.26-2.33,3.17-3.59a2.07,2.07,0,0,0,.23-2.67.79.79,0,0,0-1.35,0q-1.68,3.6-3.45,7.16c-.45.9.9,1.69,1.34.79q1.78-3.56,3.46-7.17H58.82c.5.75-2.7,3.8-3.28,4.53-1.53,1.93-4.32,3.9-6.86,3.87a.78.78,0,0,0,0,1.56Z"/><path class="cls-1" d="M58.83,607c-.35-.37-.84-.81-1.39-.68s-.71.65-1,1-.87.83-1.23,1.31c-.14.18-.25.56-.41.69s-.51.17-.71.29l.94,1.23c.32-.31.78-1,1.21-1.11,1-.3.54-1.81-.42-1.5a5.19,5.19,0,0,0-1.89,1.51.78.78,0,0,0,1,1.22c.31-.19.67-.21,1-.47a6.2,6.2,0,0,0,.61-.93c.23-.31.58-.55.84-.84s.53-.88.74-1l-.6.08a1.44,1.44,0,0,1,.28.27c.69.74,1.79-.37,1.11-1.1Z"/><path class="cls-1" d="M38.93,618.51c3.48-.14,7.26-.06,10.68-.81a15.11,15.11,0,0,0,7.26-4.53c.68-.74-.42-1.84-1.1-1.11a13,13,0,0,1-7.88,4.32c-3,.31-6,.45-9,.57-1,0-1,1.61,0,1.56Z"/><path class="cls-1" d="M50.05,613.75a9.74,9.74,0,0,0,2.11-1,17.07,17.07,0,0,1,2-1.27l-.94-1.22a14.91,14.91,0,0,1-1.67,1.4c-.24.17-.49.33-.74.49-.08.05-.92.58-.91.59l.39.67v-.12l-.23.55a3.22,3.22,0,0,0,.32-.41c.59-.82-.77-1.6-1.34-.78a1.27,1.27,0,0,0-.32.76.74.74,0,0,0,.39.67c.91.46,1.83-.18,2.6-.66a15.7,15.7,0,0,0,2.6-2.06c.67-.65-.18-1.58-.94-1.22-1.32.61-2.33,1.63-3.73,2.12-.94.33-.54,1.83.42,1.5Z"/><path class="cls-1" d="M60.64,603.23c.11-.83.87-4.35,2-4.22l-.55-.23c.46.46.34,1.71.34,2.29,0,.82,0,1.63,0,2.45,0,1,1.61,1,1.56,0,0-1.34.71-6.38-1.74-6.09-1.05.12-1.58,1.09-2,2a14.69,14.69,0,0,0-1.16,3.84c-.13,1,1.43,1,1.56,0Z"/><path class="cls-1" d="M42.69,618.39c1.1.06,2.07-.25,3.17-.25s2.22.44,3.36.38c1.71-.08,3.13-1.19,4.69-1.77a13.89,13.89,0,0,0,7.47-6.16A.78.78,0,0,0,60,609.8c-1.76,3.06-4.4,4.47-7.48,5.83-.72.31-1.37.74-2.12,1a8.24,8.24,0,0,1-3.53.06c-1.44-.14-2.79.24-4.22.16-1-.05-1,1.51,0,1.56Z"/><path class="cls-1" d="M42.49,618.35a3.45,3.45,0,0,1,1.28.08L44,616.9l-1.62,0,.2,1.53c1.18-.32,2.75.24,4,.21a19.37,19.37,0,0,0,4.66-.69.78.78,0,0,0-.42-1.5,14.6,14.6,0,0,1-5.53.61,6.62,6.62,0,0,0-3.13-.14.79.79,0,0,0,.21,1.54l1.62,0c.85,0,1.1-1.36.21-1.53a6.52,6.52,0,0,0-1.7-.14c-1,.06-1,1.62,0,1.56Z"/><path class="cls-1" d="M50.51,618.48A21.32,21.32,0,0,0,54,617c.76-.4.22-1.77-.6-1.42a2.3,2.3,0,0,0-1,.64.79.79,0,0,0,1,1.23c.66-.34,1.27-.69,1.9-1.08L54.49,615l-.52.4c-.53.4-.48,1.56.39,1.45,2.4-.3,5.17-2.67,6.67-4.53,2-2.52,2.68-5.87,4.31-8.63l-1.43-.6a24,24,0,0,1-2.67,6c-.54.87.76,1.58,1.34.79l1.08-1.46-1.35-.79A16.32,16.32,0,0,0,61,609.93c-.42.9.92,1.7,1.34.79a14.92,14.92,0,0,1,1.29-2.27c.57-.84-.77-1.58-1.35-.79l-1.07,1.46,1.34.79a25.24,25.24,0,0,0,2.84-6.39.79.79,0,0,0-1.43-.6c-1.26,2.14-1.92,4.54-3.07,6.73s-4.07,5.35-6.56,5.66l.39,1.45.53-.39c.77-.59.08-1.91-.79-1.35a19.76,19.76,0,0,1-1.9,1.08l.94,1.22.31-.24-.6-1.42A20,20,0,0,1,50.1,617c-1,.3-.55,1.81.41,1.51Z"/><path class="cls-1" d="M61.7,599.81a62.07,62.07,0,0,1,.74-12.7c.16-1-1.34-1.41-1.51-.42a64.77,64.77,0,0,0-.79,13.12c0,1,1.6,1,1.56,0Z"/><path class="cls-1" d="M60.58,600.45a.78.78,0,0,0,0-1.56.78.78,0,0,0,0,1.56Z"/><path class="cls-1" d="M65.66,599.23c-.33-2.82-.65-5.65-.9-8.48-.11-1.26-.21-2.52-.28-3.78,0-.76-.6-3.46,0-4.07l-1.31-.34c.77,2.76.51,5.21.39,8-.11,2.5.45,4.95.36,7.47a.79.79,0,0,0,1.33.55c1.2-1.39.52-4.85.43-6.51-.22-3.65.2-7.27,0-10.91,0-1-1.58-1-1.56,0,.09,3.73.17,7.45.22,11.18a.78.78,0,0,0,1.56,0c0-3.73-.12-7.45-.22-11.18H64.11c.17,3-.22,6-.11,9,0,1.37.18,2.73.19,4.09,0,.68.35,2.79,0,3.25l1.33.55c.1-2.83-.51-5.58-.29-8.4a21.09,21.09,0,0,0-.51-7.51.78.78,0,0,0-1.3-.34c-1.47,1.48-.47,5.18-.33,7.06.25,3.47.65,6.92,1,10.37.12,1,1.68,1,1.56,0Z"/><path class="cls-1" d="M60.82,594.65a.78.78,0,0,0,0-1.56.78.78,0,0,0,0,1.56Z"/><path class="cls-1" d="M65,599.47a.78.78,0,0,0,0-1.56.78.78,0,0,0,0,1.56Z"/><path class="cls-1" d="M61.63,593.34a62.69,62.69,0,0,1-.08-8.56c.18-3-.08-6.24.6-9.12.23-1-1.28-1.4-1.51-.42-.65,2.78-.38,5.75-.59,8.59a65.62,65.62,0,0,0,0,9.51c.08,1,1.64,1,1.56,0Z"/><path class="cls-1" d="M61.6,581.38c-.12-3.61.84-7.16,0-10.74a.78.78,0,0,0-1.53.21,60.76,60.76,0,0,0,.39,8.53c.11,1,1.67,1,1.56,0a60.76,60.76,0,0,1-.39-8.53l-1.53.21c.8,3.41-.17,6.87-.05,10.32,0,1,1.6,1,1.56,0Z"/><path class="cls-1" d="M61.65,577.24v-.54a.78.78,0,0,0-1.56,0v.54a.78.78,0,0,0,1.56,0Z"/><path class="cls-1" d="M65.77,580.72a61.3,61.3,0,0,1-.47-11.49H63.73A41.88,41.88,0,0,1,64,576c0,.86,1.4,1.09,1.53.21.71-4.55.32-7.83-2.07-11.8l-1.22.94a6.33,6.33,0,0,1,2,3.24.78.78,0,0,0,1.51-.42,7.73,7.73,0,0,0-2.39-3.92c-.64-.58-1.7.16-1.23.94A14.19,14.19,0,0,1,64,575.83l1.53.21a41.88,41.88,0,0,0-.22-6.81.79.79,0,0,0-1.57,0,64.07,64.07,0,0,0,.53,11.91c.14,1,1.64.57,1.51-.42Z"/><path class="cls-1" d="M61.52,572.16c.11-1.41-.94-2.29-1.26-3.6a27.62,27.62,0,0,0-1.14-4.26l-.55,1s1.57,2.15,1.67,2.3a25.15,25.15,0,0,1,1.46,2.32.78.78,0,0,0,1.35-.78,27.31,27.31,0,0,0-2.58-3.8c-.59-.72-1.25-1.84-2.31-1.54a.78.78,0,0,0-.55,1,18.86,18.86,0,0,1,1.07,3.82,6.09,6.09,0,0,0,.41,1.46c.34.75.94,1.24.87,2.16s1.48,1,1.56,0Z"/><path class="cls-1" d="M64.21,569.25a2.3,2.3,0,0,1,.07.58.78.78,0,0,0,1.56,0,4.07,4.07,0,0,0-.12-1,.78.78,0,0,0-1.51.41Z"/><path class="cls-1" d="M58.66,561.89c.77.19,1.62,1.55,2.14,2.11l2.05,2.21a.78.78,0,0,0,1.1,0c1.08-1.23-1-3.72-1.72-4.71a10,10,0,0,0-5.59-3.78c-1-.24-1.39,1.26-.42,1.5a8.31,8.31,0,0,1,4.17,2.5,9.14,9.14,0,0,1,2.38,4L63,565l-.12.14H64l-2.79-3c-.62-.67-1.16-1.48-2.08-1.71s-1.4,1.27-.42,1.51Z"/><path class="cls-1" d="M59.63,566.68a15.19,15.19,0,0,0-8.27-7.3c-2-.8-3.62-1.61-5.75-1.59-2.88,0-5.72-.59-8.6-.33-1,.09-1,1.65,0,1.56a41.89,41.89,0,0,1,6.43.28c2.14.14,3.68,0,5.72.85s3.86,1.4,5.43,2.8a14.65,14.65,0,0,1,3.69,4.52c.44.9,1.78.11,1.35-.79Z"/><path class="cls-1" d="M56.49,564a1.65,1.65,0,0,0,.15,1.32c.19.33.58.59.7,1l1.3-.75a9.14,9.14,0,0,1-.93-1.22,3.73,3.73,0,0,0-.52-.53c-.13-.11-.39-.27-.46-.43a.81.81,0,0,0-1-.55.79.79,0,0,0-.54,1c.25.65.71.92,1.17,1.41s.67,1,1.14,1.46,1.56,0,1.3-.76a2.68,2.68,0,0,0-.49-.87c-.13-.16-.42-.39-.35-.58.32-.95-1.19-1.36-1.51-.41Z"/><path class="cls-1" d="M35.41,559.63q6.35-.07,12.68,0a.78.78,0,0,0,0-1.56q-6.33-.09-12.68,0a.78.78,0,0,0,0,1.56Z"/><path class="cls-1" d="M18.4,559.75a58.5,58.5,0,0,1,9.36.13c1,.1,1-1.47,0-1.56a58.5,58.5,0,0,0-9.36-.13c-1,.06-1,1.62,0,1.56Z"/><path class="cls-1" d="M17.81,555.54c6.56,0,13.11-.12,19.67-.08a70.48,70.48,0,0,1,10,.49c3.67.54,6.51,2.6,9.35,4.84.78.62,1.89-.48,1.1-1.1-2.34-1.84-4.73-3.73-7.59-4.7-3.1-1-6.65-1-9.88-1-7.53-.18-15.08,0-22.61,0a.78.78,0,0,0,0,1.56Z"/><path class="cls-1" d="M46.43,555.59a17.82,17.82,0,0,1,12.29,4.74c.74.67,1.84-.43,1.1-1.11A19.51,19.51,0,0,0,46.43,554a.78.78,0,0,0,0,1.56Z"/><path class="cls-1" d="M48.44,555.66c2.4-.11,4.7,1,6.77,2.16,1.47.81,2.67,2,4.3,2.45,1,.29,1.34-1.16.42-1.5-.59-.22-1-1.08-1.54-1.47a19.51,19.51,0,0,0-2.49-1.49,18.21,18.21,0,0,0-5.78-1.72c-1-.16-1.41,1.34-.42,1.5a16.34,16.34,0,0,1,6.13,2.12,13.24,13.24,0,0,1,2.45,1.7c.58.55.48.58,1.23.86l.42-1.5c-2-.59-3.84-2.3-5.79-3.21a12.14,12.14,0,0,0-5.7-1.46c-1,0-1,1.6,0,1.56Z"/><path class="cls-1" d="M33.23,602.27a15,15,0,0,0,13.89-9.93c2.69-8,.62-14.83-6-19.88-2.39-1.82-4.73,2.24-2.36,4a11.86,11.86,0,0,1,3.69,14.92,11.41,11.41,0,0,1-9.23,6.16c-3,.06-3,4.74,0,4.68Z"/><path class="cls-1" d="M32.19,597.59c-8.48-.88-14.24-12.91-7.85-19.29a11,11,0,0,1,18.39,4.48c.84,2.89,5.36,1.66,4.51-1.24-1.51-5.2-5.75-9.16-10.72-11.2-5.6-2.29-12.94,1.46-16.45,5.77-8,9.8.25,24.93,12.12,26.16,3,.31,3-4.38,0-4.68Z"/><path class="cls-1" d="M16.54,582.61c-.37,7.24,2.26,16.31,10.05,18.64,8.08,2.42,15.52,2.08,19.42-6.43,1.25-2.72-2.79-5.1-4-2.36-2.78,6.06-8.42,6.48-14.14,4.28-5.49-2.12-6.88-8.91-6.61-14.13.15-3-4.53-3-4.68,0Z"/><path class="cls-1" d="M19.71,579.2l-.61,0,2,3.52c.71-1.14.94-2.37,1.83-3.4a31.39,31.39,0,0,1,2.73-2.8c1.39-1.2,6.05-3.53,7.87-2.28,2.48,1.72,4.83-2.34,2.36-4-3.32-2.29-8.44-.2-11.65,1.48-1.55.81-2.5,2.29-3.75,3.5-1.71,1.67-2.22,3.22-3.43,5.17a2.36,2.36,0,0,0,2,3.53l.61,0c3-.15,3-4.84,0-4.68Z"/><path class="cls-1" d="M23.55,574.3c1.19,1.54,1.52,1.79,1,.72a3.43,3.43,0,0,0-.4-.54,2.49,2.49,0,0,0-3.51,0c-.15.19-.29.37-.43.57-.38.81-.31.75.19-.19a2.34,2.34,0,1,0,3.32,3.31,2.73,2.73,0,0,0,.46-.6c0-.11.1-.22.14-.33.16-.4.16-.37,0,.08l-.84.84.1-.06-1.81.24.1,0-1.4-1.07-.17-.41.24.55a1.93,1.93,0,0,0,.47.63,2.65,2.65,0,0,0,3.11.48,2.38,2.38,0,0,0,1.08-1.39c.25-1.11-.34-2.7-1.64-2.88Z"/><path class="cls-1" d="M25.73,596c-.07-.06-.42-.63-.58-.82a5,5,0,0,0-.52-.51l-.47-.37q-.5-.37-.15.09c.14.3.18.33.11.1s-.05-.2-.08-.3a4.39,4.39,0,0,0-.4-1,4.84,4.84,0,0,0-.61-.76c-.38-.37-.27-.39-.24-.11A2.41,2.41,0,0,0,20.45,590a2.35,2.35,0,0,0-2.34,2.34,5.11,5.11,0,0,0,1.12,2.9c.11.14.55.84.34.34a10.17,10.17,0,0,0,.48,1.26c.43.73,1.16,1,1.7,1.53A11.54,11.54,0,0,0,23.37,600a2.34,2.34,0,0,0,2.36-4Z"/><path class="cls-1" d="M16.49,584c-.6,7.45,2.59,14.75,9.69,17.9,2.73,1.21,5.11-2.82,2.36-4-5.71-2.54-7.85-7.88-7.37-13.86.25-3-4.44-3-4.68,0Z"/><path class="cls-1" d="M22.78,591.43a3,3,0,0,1-1.53-2.91c0-2.8-3.68-3-4.6-.62l-.19.49H21A7.33,7.33,0,0,1,21,585c.72-2.92-3.79-4.17-4.51-1.24a12.79,12.79,0,0,0-.07,5.87c.54,2.47,3.76,2,4.52,0l.19-.49-4.6-.62c0,3.22,1.32,5.11,3.84,7s4.78-2.28,2.37-4.05Z"/><path class="cls-1" d="M16.2,584.55a5.61,5.61,0,0,0,.18,1.16,2.34,2.34,0,1,0,4.52-1.24c-.07-.26-.08-.23,0,.08a2.34,2.34,0,0,0-4.68,0Z"/><path class="cls-1" d="M28.21,602.16c3.31.66,6.37,1.21,9.71.33,2.67-.71,1.91-4.39-.63-4.6s-5.44,1.18-7.8-.06c-2.67-1.4-5,2.64-2.37,4a9.17,9.17,0,0,0,5,1.09,43.31,43.31,0,0,1,5.19-.39l-.62-4.6c-2.49.66-4.75.17-7.22-.32-2.94-.58-4.2,3.93-1.24,4.51Z"/><path class="cls-1" d="M48.07,583.81a2.58,2.58,0,0,0-.82-2.06c-1.74-1.87-4.26.15-3.92,2.27.43,2.6-.14,5.26.4,7.81a2.37,2.37,0,0,0,4.28.56c2.25-4,2.15-7.7.42-11.91-1.13-2.75-5.66-1.55-4.51,1.24,1.24,3,1.7,5.37,0,8.31l4.28.56a20.22,20.22,0,0,1,0-3.73,29.4,29.4,0,0,0-.43-4.08l-3.91,2.28.16.17-.69-1.66,0,.24c-.22,3,4.47,3,4.68,0Z"/><path class="cls-1" d="M41.39,600.57c1.9-.83,3.54-2.87,4.81-4.46,1.72-2.15,2.52-4.82,3.5-7.35l-4.52-1.24c-.36,2-1.77,3.9-2.78,5.65-1.5,2.61,2.54,5,4,2.36,1.21-2.09,2.82-4.36,3.26-6.77a2.35,2.35,0,0,0-4.52-1.24c-.77,2-1.38,4.13-2.74,5.82A10.73,10.73,0,0,1,39,596.53c-2.75,1.21-.37,5.24,2.37,4Z"/><path class="cls-1" d="M40.29,596.26H40.1a2.34,2.34,0,1,0,0,4.68h.19a2.34,2.34,0,0,0,0-4.68Z"/><path class="cls-1" d="M35,601.35c4.08-.25,9.57-3.17,11.35-7,1.27-2.71-2.77-5.09-4-2.36-1.07,2.3-4.8,4.52-7.31,4.68-3,.18-3,4.86,0,4.68Z"/><path class="cls-1" d="M32.34,599.28c.66-.33,1.07-.91,1.82-1.09.4-.1,1.42,0,1.85-.13a9.43,9.43,0,0,0,4-2.12,18,18,0,0,0,3.4-3.73c1.08-1.62,1.3-3.54,2.21-5.24.47-.89-.87-1.67-1.35-.79-.78,1.47-1,3.13-1.79,4.59a14.61,14.61,0,0,1-3.27,3.79,8.46,8.46,0,0,1-2.82,1.77,26,26,0,0,1-2.74.28c-.94.21-1.27.9-2.11,1.32s-.1,1.8.79,1.35Z"/><path class="cls-1" d="M43.61,599.12a4.22,4.22,0,0,0,1.51-1.4,11.07,11.07,0,0,1,1-1.25L44.94,596l.17-.45,1,1.23a17.33,17.33,0,0,0,2.74-5.23l-1.5-.42-.43,1.22c-.33.95,1.18,1.36,1.51.41l.42-1.21c.33-1-1.17-1.36-1.5-.42A15.26,15.26,0,0,1,45,595.68a.78.78,0,0,0,.95,1.22,1,1,0,0,0,.55-1.31.8.8,0,0,0-1.15-.47c-1,.64-1.38,2.15-2.48,2.65-.91.42-.12,1.76.79,1.35Z"/><path class="cls-1" d="M45.11,590a6.7,6.7,0,0,1-.32-1.83.78.78,0,0,0-1.53-.21L43,589.06c-.24,1,1.27,1.39,1.51.42l.27-1.09-1.53-.21a8.15,8.15,0,0,0,.37,2.25c.3,1,1.81.55,1.51-.42Z"/><path class="cls-1" d="M32.83,596.72a5.94,5.94,0,0,1-2.18-.18l-.2,1.54h6.23a.78.78,0,0,0,0-1.56H30.45a.78.78,0,0,0-.21,1.53,7.79,7.79,0,0,0,2.59.24c1-.09,1-1.65,0-1.57Z"/><path class="cls-1" d="M37.33,598a2.35,2.35,0,0,0-.23-1.47.79.79,0,0,0-.88-.36,3.32,3.32,0,0,0-1.19.7.79.79,0,0,0,.76,1.31c.86-.27,1.54-1,2.42-1.16s.56-1.71-.42-1.5-1.55.88-2.42,1.15l.76,1.31a1.26,1.26,0,0,1,.51-.3l-.89-.36a.52.52,0,0,1,.07.27.81.81,0,0,0,.55,1,.79.79,0,0,0,1-.55Z"/><path class="cls-1" d="M31.13,598.12A6,6,0,0,0,30,596.41l-.76,1.3.59.16.39-1.45a6.49,6.49,0,0,1-3.53-1.85,16.64,16.64,0,0,1-1.38-.93c-.45-.46-.68-1-1.17-1.48-.75-.67-1.85.43-1.1,1.1.57.51.85,1.24,1.44,1.74s1.29.92,1.9,1.43A7.54,7.54,0,0,0,30.19,598c.73,0,1.12-1.15.39-1.45a4,4,0,0,0-1-.32.79.79,0,0,0-.76,1.3,4.82,4.82,0,0,1,.93,1.4c.41.91,1.75.12,1.34-.79Z"/><path class="cls-1" d="M30,597c-.23-.88-1.23-1-1.85-1.52l-.76,1.31a2.74,2.74,0,0,1,.78.35,3.33,3.33,0,0,0,.91.29.8.8,0,0,0,1-.55.79.79,0,0,0-.55-1c-.61-.1-1.08-.53-1.69-.64a.82.82,0,0,0-.88.36.8.8,0,0,0,.12,1,7.83,7.83,0,0,0,.83.59l.44.22.12.05c.14.1.16.08.06,0A.78.78,0,0,0,30,597Z"/><path class="cls-1" d="M25.22,578.4c1.6-.14,2.34-1.66,3.77-2.31a10.48,10.48,0,0,1,3-.62c1-.16,2.63-1,3.56-.32s1.6-.77.78-1.35c-1.66-1.17-3.93,0-5.75.23a7.59,7.59,0,0,0-2.29.64c-.83.39-2.3,2.1-3.06,2.17-1,.09-1,1.65,0,1.56Z"/><path class="cls-1" d="M24.19,577.44c-.78,1.45-1.94,2.55-2.54,4.11a13.13,13.13,0,0,0-1,4.49c0,2.92,1.75,6,3.35,8.36.57.83,1.92.05,1.35-.78-1.53-2.22-3.11-5-3.06-7.71.07-3.17,1.85-5.07,3.24-7.68.48-.88-.87-1.67-1.34-.79Z"/><path class="cls-1" d="M26.35,596a1.67,1.67,0,0,0-.17-1.2c-.18-.31-.46-.54-.63-.85l-.88,1.15.12,0-.34-.2.09.08a.79.79,0,0,0,1.31-.34,1.17,1.17,0,0,0-.53-1.42c-.84-.55-1.62.8-.78,1.35l-.2-.34,1.31-.35a1.84,1.84,0,0,0-.57-.34c-.66-.28-1.18.61-.88,1.15a3.65,3.65,0,0,0,.41.56,1.61,1.61,0,0,1,.24.29c-.2,1,1.3,1.4,1.5.41Z"/><path class="cls-1" d="M45.17,597.52a.78.78,0,0,0,0-1.56.78.78,0,0,0,0,1.56Z"/><path class="cls-1" d="M34.19,575.48c.13,0,.63.37.84.43a4.1,4.1,0,0,0,1.21.1c1,0,1-1.6,0-1.56a1.7,1.7,0,0,1-1-.18,1.67,1.67,0,0,0-1-.35c-1,0-1,1.59,0,1.56Z"/><path class="cls-1" d="M40.54,573.91c-.11-1.09-.61-2.74-1.63-3.31a8.61,8.61,0,0,0-4.27-1c-1,0-1,1.61,0,1.56a7.42,7.42,0,0,1,3,.63A2.44,2.44,0,0,1,39,573.91c.09,1,1.66,1,1.56,0Z"/><path class="cls-1" d="M49.63,583.66l-.83-2.2-1.43.6a4.73,4.73,0,0,0,.75,1.13c.48.59,1.6-.05,1.3-.76-2.07-5-5-9.36-10-11.71-.91-.42-1.7.92-.79,1.35,4.53,2.13,7.37,6.26,9.26,10.78l1.3-.76-.5-.82c-.39-.78-1.74-.23-1.43.6l.83,2.21c.35.93,1.86.52,1.51-.42Z"/><path class="cls-1" d="M49,581l-1.2-2.43c-.41-.82-1.62-.23-1.43.61a4.43,4.43,0,0,0,.8,1.77.79.79,0,0,0,1.45-.4c.15-1.4-.94-3-1.73-4.06a12.6,12.6,0,0,0-1.49-1.69c-.43-.39-1.29-.77-1.46-1.31l-1.43.6a4.57,4.57,0,0,0,1.2,1.24c.74.53,1.54-.61,1-1.23a10.37,10.37,0,0,0-3.06-2.24c-.9-.43-1.69.92-.79,1.35a9,9,0,0,1,2.74,2l.95-1.23-.64-.68a.79.79,0,0,0-1.43.61c.31,1,1.13,1.33,1.86,2,1.07.95,2.94,3.09,2.77,4.65l1.46-.39a2.43,2.43,0,0,1-.65-1.4l-1.42.6,1.2,2.43c.45.9,1.8.11,1.35-.79Z"/><path class="cls-1" d="M22.53,588.35a8,8,0,0,0-.1-2.44,8.65,8.65,0,0,1,.54-3.1l-1.5-.42-.61,3.53c-.16,1,1.34,1.4,1.51.41l.6-3.52a.78.78,0,0,0-1.5-.42,12.5,12.5,0,0,0-.56,2.65c-.11,1,.33,2,.11,2.9s1.28,1.39,1.51.41Z"/><path class="cls-1" d="M25.58,577.26a1.15,1.15,0,0,0-.73.06c-.2.1-.27.2-.45.28a1.85,1.85,0,0,0-.71.85.79.79,0,0,0,1.23.95,1.72,1.72,0,0,0,.41-.52c.48-.88-.87-1.67-1.34-.79a.34.34,0,0,1-.17.2l1.22,1,.14-.24c.11-.16.08-.16-.08,0,.2-.08.34-.23.54-.32l-.6.08.13,0a.81.81,0,0,0,1-.55.79.79,0,0,0-.55-1Z"/><path class="cls-1" d="M27.78,577a17.29,17.29,0,0,1,9.82-1.44c1,.19,1.4-1.31.42-1.51a18.92,18.92,0,0,0-11,1.61c-.92.41-.12,1.75.78,1.34Z"/><path class="cls-1" d="M34.76,574.3a6.47,6.47,0,0,0-2.36-.08.79.79,0,0,0-.55,1,.82.82,0,0,0,1,.55,3.94,3.94,0,0,1,1.53.08c1,.22,1.4-1.28.42-1.51Z"/><path class="cls-1" d="M37.39,574.93a3.28,3.28,0,0,0-1.08-.15c-1,0-1,1.61,0,1.57a1.84,1.84,0,0,1,.66.08.78.78,0,0,0,.42-1.5Z"/><path class="cls-1" d="M37.4,576.52c-.19,0,0,0,.09.15a1.48,1.48,0,0,0,.3.26c.32.21.68.27,1,.45a10.41,10.41,0,0,1,1.93,1.5c.75.66,1.86-.44,1.1-1.11a15.08,15.08,0,0,0-2.14-1.68c-.31-.19-.76-.24-1-.45s-.39-.51-.83-.63a.78.78,0,0,0-.42,1.51Z"/><path class="cls-1" d="M42.08,578.31c-.58-.5-1.11-1-1.66-1.59-.73-.69-1.83.41-1.11,1.11.55.53,1.09,1.09,1.67,1.58.76.65,1.87-.44,1.1-1.1Z"/><path class="cls-1" d="M37.64,576.74a.79.79,0,0,0,0-1.57.79.79,0,0,0,0,1.57Z"/><path class="cls-5" d="M35.79,702.62s1.81,8.12-8.89,10.89H3.5V675.88H27.09c7.45,2.39,7.45,8.69,7.45,8.69s1.15,5.44-5.44,8.79C29.1,693.36,35.64,694.07,35.79,702.62Z"/><path class="cls-5" d="M23.18,691.35c6.88-5.82-.43-9.31-.43-9.31H11.91v9.31Z"/><path class="cls-5" d="M23.47,707.35c9.93-5.87,0-10.46,0-10.46H11.91v10.46Z"/><path class="cls-5" d="M45.15,696.89H57.83s-1.22-6.35-6.34-6.14S45.15,696.89,45.15,696.89Z"/><path class="cls-5" d="M51.49,685.91s-11.79.09-13.7,11.46c0,0-3.1,16,13.7,17,0,0,11.06,1.43,13.5-9v-.18H58a6.16,6.16,0,0,1-6.51,3.9c-5.13-.36-6.56-5.87-6.34-7.45h20.7S66.92,686.65,51.49,685.91Z"/><rect class="cls-6" x="42.93" y="678.29" width="16.48" height="3.75"/><path class="cls-1" d="M6.27,681.24c4.94.66,9.52-.48,14.35-.28,3.62.15,9.14,2.65,6.21,7-1.35,2-4,3.53-3.78,6.38.32,3.9,6,4.48,5.34,9.15-.75,5.26-8.95,4.68-12.84,4.45-1.67-.1-4.31.39-5.17-.78s0-6.44,0-8c0-5.32.67-11,0-16.31-.29-2.34-1.33-3.93-3.84-4A2.66,2.66,0,0,0,4,681.47c-.91,7.72,1.5,15.3.7,23-.35,3.3,4.81,3.28,5.15,0,.81-7.72-1.6-15.3-.69-23L6.6,684.05c-2.28,0-1.4,19.66-1.37,22.1.06,4,1,6.79,5.43,6.88,7.6.15,23.33,1.5,22.84-10.2a12.55,12.55,0,0,0-1.58-5.65c-.56-1-3.33-3.29-3.35-3.76s3.64-2.93,4.07-4c.67-1.71.07-4.16-.31-5.86-2.53-11.41-17.8-6.32-26.06-7.43-3.28-.43-3.25,4.73,0,5.16Z"/><path class="cls-1" d="M10.12,696.8c4.92-.27,9.83-.34,14.76-.21,3.32.1,3.31-5.06,0-5.15-4.93-.14-9.84-.07-14.76.2-3.3.19-3.32,5.35,0,5.16Z"/><path class="cls-1" d="M7.29,678l-.75-.08L9,679.83l-.27-.7c-1-2.56-5.15-2.43-5.07.68l.17,7.09,5.07-.69c-1.95-6.91,6.86-5,10.67-4.76,3.56.22,8.71,2.09,6.47,6.63-1.47,3,3,5.58,4.45,2.6,1.77-3.57,2-6.2-.45-9.41-2.9-3.87-4.92-4.63-9.65-4.93-4.23-.26-9.82-1.73-13.49,1-3.3,2.48-4,6.43-3,10.24.78,2.75,5.14,2.27,5.07-.69l-.17-7.09-5.07.69.27.7a2.76,2.76,0,0,0,2.49,1.9l.75.08c3.29.36,3.27-4.8,0-5.16Z"/><path class="cls-1" d="M31.1,708.66c.07-1.76,1.13-3.22,1.37-5a2.67,2.67,0,0,0-1.8-3.17c-1.21-.33-3,.41-3.18,1.8a10.19,10.19,0,0,1-.87,2.81,9.52,9.52,0,0,0-.67,3.54c-.13,3.32,5,3.31,5.15,0Z"/><path class="cls-1" d="M28.69,709.93a1.32,1.32,0,0,1-.3.51c-.15.19-.16.2,0,0s.2-.21.3-.32l.66-.71a2.57,2.57,0,0,0-3.64-3.64,6.32,6.32,0,0,0-2,2.74,2.58,2.58,0,1,0,5,1.37Z"/><path class="cls-1" d="M27.86,713.12c4.09-1.18,7.64-4.37,7.86-8.79.21-4.26-1.59-8.69-5.63-10.52l-2,4.71c1.77.54,2.26,2.33,2.42,4,.31,3.27,5.47,3.31,5.15,0-.39-4.11-2-7.66-6.2-9-2.73-.84-4.69,3.48-2,4.71,2.18,1,3,2.83,3.08,5.19s-1.8,4-4.08,4.7c-3.18.91-1.83,5.89,1.37,5Z"/><path class="cls-1" d="M34.44,685.38c.27-2.72-1-4.86-2.92-6.68A2.59,2.59,0,0,0,29,678l-.17,0h1.37c.24.3.35.33.32.09l-4.05,3.13a10.45,10.45,0,0,0,1.43,1.13c2.1,1.41,5-1.41,3.53-3.53-.84-1.21-1.59-1.35-2.83-1.86A11,11,0,0,0,26.29,676L25.61,681c.17,0,.27.24.6.52a3.15,3.15,0,0,0,1.63.78,2.66,2.66,0,0,0,3.17-1.8,2.59,2.59,0,0,0-1.8-3.17c.27,0-.1-.23-.17-.29a5.75,5.75,0,0,0-1.18-.78,5.12,5.12,0,0,0-2.25-.42,2.59,2.59,0,0,0-2.54,2.24,2.57,2.57,0,0,0,1.85,2.83,5.28,5.28,0,0,1,1,.62c.52.28,1.35.34,1.75.61l-.92-.92.18.27L30.51,678a.92.92,0,0,1-.38-.33c-2.19-2.11-5.29.54-4.05,3.13a3.84,3.84,0,0,0,4.3,2.23l-2.51-.66c1,.95,1.56,1.61,1.41,3A2.61,2.61,0,0,0,31.86,688a2.64,2.64,0,0,0,2.58-2.58Z"/><path class="cls-1" d="M24.85,692.12c-.15-.33-.33-.85.13-1,.68-.26.38-1.37-.3-1.1a1.69,1.69,0,0,0-1.06,1,2.3,2.3,0,0,0,.24,1.68c.29.68,1.28.09,1-.58Z"/><path class="cls-1" d="M14.41,696.85c2.45.07,4.9.09,7.35.22,3.37.18,4.7,1.86,6.48,4.58.41.61,1.4,0,1-.58-1.21-1.85-2.59-4.07-4.81-4.82-3-1-6.9-.45-10-.54-.73,0-.73,1.12,0,1.14Z"/><path class="cls-1" d="M26,677.4a3.6,3.6,0,0,1-1.21-.87c-.32-.35-.66-.72-1.17-.52-.68.25-.39,1.36.3,1.1-.2.08.11.3.22.4s.23.21.35.31a4.47,4.47,0,0,0,.93.57c.67.31,1.25-.68.58-1Z"/><path class="cls-1" d="M31.23,678.85c.16-1.27-1.63-2.08-2.63-2.29-.72-.15-1,1-.31,1.1.48.11,1.88.54,1.79,1.19s1.06.72,1.15,0Z"/><path class="cls-1" d="M28.33,693.26a1.83,1.83,0,0,0,1.5-.31c.53-.36.92-.84,1.46-1.2a3.13,3.13,0,0,0,.69-.56,10,10,0,0,0,2.62-5.38.58.58,0,0,0-1.13-.16,13.66,13.66,0,0,1-2.42,5c-.45.58.36,1.4.81.81A15.15,15.15,0,0,0,34.58,686l-1.13-.15a8.2,8.2,0,0,1-1.93,4A6.33,6.33,0,0,1,30.27,691c-.4.33-1,1.24-1.64,1.14s-1,1-.3,1.11Z"/><path class="cls-1" d="M11.27,708.42a94.13,94.13,0,0,0,14.83.07c.73,0,.73-1.2,0-1.14a95.35,95.35,0,0,1-14.83-.08c-.74-.06-.73,1.09,0,1.15Z"/><path class="cls-1" d="M24.16,708.23a1.44,1.44,0,0,0,.58-.09c.68-.27.38-1.37-.31-1.11a.42.42,0,0,1-.27.06.57.57,0,0,0,0,1.14Z"/><path class="cls-1" d="M11.92,682.63c2.59-.22,5.21-.43,7.81-.47,1.63,0,3.28.05,4.58,1.22s2.12,3.43,1.05,5c-.73,1.08,1,2.1,1.75,1,1.75-2.57.3-6.38-2.1-8-3.49-2.4-9.19-1.1-13.09-.76-1.29.11-1.3,2.14,0,2Z"/><path class="cls-1" d="M17.64,681.81a27.26,27.26,0,0,1,4.14.28c.72.1,1-1,.31-1.11a31.61,31.61,0,0,0-4.45-.32.58.58,0,0,0,0,1.15Z"/><path class="cls-1" d="M4.11,713.57c7.64-.3,15.5-1,23.06-.35L27,712.09c-2.05.4-4.14-.32-6.2.11a.58.58,0,0,0,0,1.11,4.31,4.31,0,0,0,2.28.14c.72-.06.75-1.17,0-1.14q-6.13.2-12.26.08a.57.57,0,0,0,0,1.14q6.14.13,12.26-.08v-1.14l-2-.11v1.11c2-.42,4.15.28,6.21-.11.67-.13.45-1.08-.16-1.13-7.58-.62-15.39,0-23.06.35a.58.58,0,0,0,0,1.15Z"/><path class="cls-1" d="M56.32,699.57a.86.86,0,0,0,0-1.72.86.86,0,0,0,0,1.72Z"/><path class="cls-1" d="M61.48,697.57l-14,.9c-1.09.07-1.11,1.75,0,1.72,3.27-.09,6.55.17,9.82,0,1.87-.07,4.83,0,6.43-1,2.47-1.5-.5-5.27-1.87-6.61a.86.86,0,0,0-1.35,1,19.86,19.86,0,0,1,1.83,4.69l1.57-.66a19.72,19.72,0,0,0-3.41-5.35c-.67-.75-1.79.21-1.35,1l2.71,5.15,1.48-.87A40.39,40.39,0,0,1,61,693.47c-.48-1-2-.13-1.49.86a41.46,41.46,0,0,0,2.35,4.23.86.86,0,0,0,1.48-.87l-2.71-5.14-1.35,1a18.34,18.34,0,0,1,3.14,5c.4.92,1.81.25,1.58-.66a21.09,21.09,0,0,0-2-5.09l-1.35,1a6.75,6.75,0,0,1,1.53,1.87c.93,1,.84,1.72-.28,2.26-.86.87-3.94.51-5.2.53-3.07.06-6.14-.14-9.21-.06v1.72l14-.9c1.1-.07,1.11-1.79,0-1.72Z"/><path class="cls-1" d="M63.65,695.93a11.85,11.85,0,0,0-3.92-7c-2.78-2.5-6.39,1.24-4.06,4.06.8,1,1.6,1.92,2.39,2.89.35.42,1.39,1.49,1.17,2l2-2c.26,0,.18,0-.26,0-3.69-.09-3.69,5.64,0,5.73,1.66,0,3.21-.45,3.78-2.18a5.84,5.84,0,0,0-.2-3.8c-1-2.55-3.13-4.62-4.83-6.69L55.67,693a7,7,0,0,1,2.45,4.43c.22,1.53,2.17,2.37,3.53,2a3,3,0,0,0,2-3.53Z"/><path class="cls-1" d="M38.1,699.92c.7,6,2.71,11.24,8.6,13.52A14.93,14.93,0,0,0,63,709.79c2.5-2.71-1.54-6.78-4.05-4.06A9.15,9.15,0,0,1,48.59,708c-3.15-1.3-4.38-4.8-4.76-8.08-.42-3.62-6.16-3.66-5.73,0Z"/><path class="cls-1" d="M44.09,700.92a12.21,12.21,0,0,1,2.43-7.52c2.09-3.06-2.88-5.93-5-2.89a17.31,17.31,0,0,0-3.21,10.41c.18,3.67,5.92,3.7,5.73,0Z"/><path class="cls-1" d="M58.36,691.22c-.88-2.65-4.32-3.91-6.89-4.08a7.61,7.61,0,0,0-7.36,3.94,1.45,1.45,0,0,0,1.62,2.1A12.55,12.55,0,0,0,49,691.61c.28-.18,4.61-2.08,5-.8l2.11-1.62a3.55,3.55,0,0,0-1.56-.66c-1.79-.4-2.56,2.36-.76,2.76l.87.38a1.45,1.45,0,0,0,2.11-1.62c-.77-2.26-2.75-2.34-4.86-2.31a7.15,7.15,0,0,0-3.08.4c-1.41.68-2.27,1.8-3.86,2.28l1.62,2.1A4.67,4.67,0,0,1,50.73,690c1.21,0,4.39.56,4.87,2,.58,1.74,3.35,1,2.76-.76Z"/><path class="cls-1" d="M43,701.1a69.44,69.44,0,0,1,9.12.21c3.09.13,6.07-.47,9.15-.54,1.84,0,1.84-2.9,0-2.86-3.08.07-6.06.66-9.15.53a71.18,71.18,0,0,0-9.12-.21c-1.82.16-1.84,3,0,2.87Z"/><path class="cls-1" d="M44,699.9l16.62.47c1.84,0,1.84-2.81,0-2.86L44,697c-1.84-.06-1.84,2.81,0,2.86Z"/><path class="cls-1" d="M45.66,697.63a2,2,0,0,1-.25-1.91,1.48,1.48,0,0,0-.51-2,1.45,1.45,0,0,0-2,.51,4.91,4.91,0,0,0,.24,4.81c1,1.54,3.49.1,2.48-1.45Z"/><path class="cls-1" d="M44.12,708.8c-1.92-1.19-2.21-2.82-2.64-4.68-.3-1.32-2.53-1.42-2.76,0a5.72,5.72,0,0,0,0,2.47l2.61-1.1c-1.72-3.12-.89-9.13,1-11.79.93-1.34,12.07-8.61,12.32-3,.08,1.84,3,1.85,2.87,0-.34-7.64-11-4.15-14.62-1.55-5.1,3.62-7.07,12.29-4,17.83.82,1.48,2.92.43,2.62-1.11l0-1H38.72c.63,2.73,1.52,4.88,4,6.39,1.57,1,3-1.5,1.45-2.47Z"/><path class="cls-1" d="M53.38,687.82H53a1.43,1.43,0,0,0,0,2.86h.43a1.43,1.43,0,1,0,0-2.86Z"/><path class="cls-1" d="M60.65,707.67a1.68,1.68,0,0,0-.11-2,1.77,1.77,0,0,0-2-.54,2.12,2.12,0,0,0-1.23,1.19c-.12.29-.25.58-.35.87,0,.11-.07.21-.1.32-.09.45-.09-.1.39-.33L58,707l.21,0,.63.37-.06,0,.37.63v-.08a1.46,1.46,0,0,0-1.77-1,1.47,1.47,0,0,0-1,1.76,1.64,1.64,0,0,0,2.76.71,2.41,2.41,0,0,0,.55-1.16,2.51,2.51,0,0,1,.16-.46c0,.07,0,0,0-.09.27-.46-.12-.42-1.18.14l-.51-.52-.07-.15v-.76l.07-.16a1.44,1.44,0,0,0,.51,2,1.47,1.47,0,0,0,2-.51Z"/><path class="cls-1" d="M64.57,707.25a1.76,1.76,0,0,0-.29-1.46,1.61,1.61,0,0,0-1.33-.63V708h.18a1.44,1.44,0,0,0,0-2.87H63A1.43,1.43,0,1,0,63,708h.11l-.72-.2.09.07-.51-.51,0,.1-.15-1.11v.12a1.47,1.47,0,0,0,1,1.76,1.45,1.45,0,0,0,1.76-1Z"/><path class="cls-1" d="M43.35,701.37l20.71.24a1.43,1.43,0,0,0,0-2.86l-20.71-.25a1.44,1.44,0,0,0,0,2.87Z"/><path class="cls-1" d="M48.44,700.18a14.53,14.53,0,0,1,2-.5c.84-.09,1.76,0,2.6,0,2,0,4-.13,6.06-.31,1.82-.16,1.84-3,0-2.86-2.31.21-4.61.32-6.92.31a17.18,17.18,0,0,0-2.87,0c-.59.1-1.08.42-1.65.55-1.79.42-1,3.18.76,2.77Z"/><path class="cls-1" d="M66,700.21a14.5,14.5,0,0,0-9.64-13.14L56,689.88l.05-.07,1.62-2.11a4.48,4.48,0,0,1-1.68-.93c-1.49-1.09-2.92,1.4-1.45,2.48a8.88,8.88,0,0,0,2.37,1.22,1.45,1.45,0,0,0,1.61-2.11A2.42,2.42,0,0,0,56,687a1.44,1.44,0,0,0-.38,2.82c4.31,1.37,7.38,5.91,7.54,10.38.07,1.84,2.94,1.85,2.87,0Z"/><path class="cls-1" d="M48.23,708.92c-.26-1.24-1.38-2.1-2-3.21a8.08,8.08,0,0,1-.88-4.21c.07-1.84-2.79-1.84-2.86,0A10.78,10.78,0,0,0,44,707.6c.36.59,1.28,1.4,1.43,2.08.37,1.81,3.13,1,2.76-.76Z"/><path class="cls-1" d="M63.84,707.3a1.15,1.15,0,0,0,0-2.29,1.15,1.15,0,0,0,0,2.29Z"/><path class="cls-1" d="M62.62,694.12c0-1.54.19-2.87-.85-4.12a5.65,5.65,0,0,0-1.38-1.2,6.16,6.16,0,0,0-.82-.39c-.13,0-1.11-.46-.73-.16l.33.81v-.16L58,690.05h.25l-.57-2.13.59,0,.53.68-.07-.19c-.47-1.39-2.69-.79-2.21.61a1.55,1.55,0,0,0,2.31.93,1.16,1.16,0,0,0-.58-2.14H58a1.14,1.14,0,0,0-1.14,1.14c0,1.4,1.28,1.3,2.22,1.81a2.63,2.63,0,0,1,1.21,1.19,7.85,7.85,0,0,1,0,2.22,1.15,1.15,0,0,0,2.29,0Z"/><rect class="cls-1" x="7.9" y="779.54" width="10.15" height="30.54"/><ellipse class="cls-1" cx="13" cy="770.09" rx="5.71" ry="5.28"/><polygon class="cls-1" points="33.82 810.08 23.66 810.08 23.66 779.54 33.82 779.54 33.82 783.96 33.82 810.08"/><path class="cls-1" d="M33.82,784A9.71,9.71,0,0,1,43,778.82c6.83.09,9.38,4.67,9.38,4.67s2.32,4.67,2.31,6.43,0,20.16,0,20.16H44.51l0-17.39s-.13-6-5.11-5.86a5.53,5.53,0,0,0-5.54,4.74Z"/><line class="cls-7" x1="37.81" y1="303.34" x2="37.81"/></g></g></svg>