<svg xmlns="http://www.w3.org/2000/svg" viewBox="0 0 42.06 728.91"><defs><style>.cls-1{fill:#1d1d1b;}.cls-2{fill:none;stroke:#1d1d1b;stroke-miterlimit:10;}</style></defs><title>newemail1</title><g id="Layer_2" data-name="Layer 2"><g id="Layer_1-2" data-name="Layer 1"><path class="cls-1" d="M10.4,351.3a8,8,0,0,1,3.75-3.79l2,2.9A5.4,5.4,0,0,0,13.22,353a9.44,9.44,0,0,0-1,4.41,7.1,7.1,0,0,0,.94,4,2.76,2.76,0,0,0,2.36,1.38,2.33,2.33,0,0,0,2.06-1.29A14.07,14.07,0,0,0,19,357a23.38,23.38,0,0,1,1.41-5.08,6.07,6.07,0,0,1,2.09-2.71,5.46,5.46,0,0,1,3.13-.85,5.66,5.66,0,0,1,3.34,1.07,7.43,7.43,0,0,1,2.43,3.07,12.72,12.72,0,0,1-.4,10.35,7.29,7.29,0,0,1-4,3.09l-1.78-3a5.64,5.64,0,0,0,3.07-2.16,6.53,6.53,0,0,0,.93-3.63,6.63,6.63,0,0,0-1-3.69,2.77,2.77,0,0,0-2.27-1.52,2.52,2.52,0,0,0-2.27,1.31,14.49,14.49,0,0,0-1.39,4.7C21.75,361,21,363.2,20,364.47a5.14,5.14,0,0,1-4.27,1.92,5.45,5.45,0,0,1-3.41-1.14A7.32,7.32,0,0,1,10,362a13.26,13.26,0,0,1-.84-4.91A12.89,12.89,0,0,1,10.4,351.3Z"/><path class="cls-1" d="M7.3,376.53q-3.78,0-5.54-2A7,7,0,0,1,0,369.77a7.47,7.47,0,0,1,.4-2.49,6.33,6.33,0,0,1,1.07-2l3.38.75a5.4,5.4,0,0,0-1.38,3.66q0,3.24,4.19,3.24H31.83v3.56Zm33.36.12a2.68,2.68,0,0,1-3.78,0,2.67,2.67,0,1,1,3.78,0Z"/><path class="cls-1" d="M29.18,403.17q-3.09,2.74-8.48,2.74t-8.48-2.74a9.38,9.38,0,0,1-3.09-7.41,9,9,0,0,1,1.18-4.61,7.46,7.46,0,0,1,3.13-3l-3.87-.22v-3.12H42.06v3.56H28.36a7.92,7.92,0,0,1,2.84,3,8.83,8.83,0,0,1,1.07,4.38A9.38,9.38,0,0,1,29.18,403.17Zm-14.65-2.69a9.46,9.46,0,0,0,6.17,1.87,9.44,9.44,0,0,0,6.16-1.87,6.24,6.24,0,0,0,2.29-5.12,6.32,6.32,0,0,0-2.22-5.09,8.85,8.85,0,0,0-6-1.9h-.54a8.85,8.85,0,0,0-6,1.9,6.32,6.32,0,0,0-2.23,5.09A6.24,6.24,0,0,0,14.53,400.48Z"/><path class="cls-1" d="M31.83,432.13H9.57V429l3.38-.22c-2.55-1.49-3.82-4.14-3.82-8a8.68,8.68,0,0,1,2-5.9q2-2.3,6.14-2.29H31.83v3.56H18.2c-2.16,0-3.69.45-4.6,1.34a5.22,5.22,0,0,0-1.36,3.91,7.26,7.26,0,0,0,1.87,5.1,7.28,7.28,0,0,0,5.61,2H31.83Z"/><path class="cls-1" d="M11,457.76a4.7,4.7,0,0,1-3.88,1.78,5.49,5.49,0,0,1-3.76-1.46,9.4,9.4,0,0,1-2.49-4A16.85,16.85,0,0,1,0,448.55c0-3.38.55-5.93,1.63-7.66a4.86,4.86,0,0,1,4.25-2.58,3.85,3.85,0,0,1,2.67,1.05,5.68,5.68,0,0,1,1.64,2.87,6.17,6.17,0,0,1,1.7-2.2,3.7,3.7,0,0,1,2.4-.83,4.22,4.22,0,0,1,2.74.89,5.31,5.31,0,0,1,1.62,2.45,6.39,6.39,0,0,1,2.56-2.42,7.52,7.52,0,0,1,3.54-.83,6.8,6.8,0,0,1,3.89,1.16,7.59,7.59,0,0,1,2.68,3.25,11.34,11.34,0,0,1,1,4.72,11.18,11.18,0,0,1-.89,4.54q4.54,1.25,4.54,6.27l-3.11.8c0-2.9-.82-4.67-2.45-5.29a7.24,7.24,0,0,1-2.45,2.07,6.9,6.9,0,0,1-3.16.73,6.78,6.78,0,0,1-3.89-1.16,7.59,7.59,0,0,1-2.68-3.25,11.13,11.13,0,0,1-.95-4.71,13,13,0,0,1,.4-3.43,3.54,3.54,0,0,0-1-1.91,2.66,2.66,0,0,0-1.83-.58,2.11,2.11,0,0,0-1.78.8,3.39,3.39,0,0,0-.62,2.13v7.39A7.69,7.69,0,0,1,11,457.76Zm-6.93-3.47a3.13,3.13,0,0,0,2.65,2,2.21,2.21,0,0,0,2-1,6.38,6.38,0,0,0,.67-3.41v-6a5.7,5.7,0,0,0-.74-3.16,2.3,2.3,0,0,0-2-1.11,2.92,2.92,0,0,0-2.65,1.87A12.29,12.29,0,0,0,3,449,11.07,11.07,0,0,0,4.07,454.29Zm24-9.75a4.37,4.37,0,0,0-6.68,0,6.47,6.47,0,0,0,0,7.75,4.36,4.36,0,0,0,6.68,0,6.47,6.47,0,0,0,0-7.75Z"/><path class="cls-1" d="M11,482.2A4.7,4.7,0,0,1,7.12,484a5.45,5.45,0,0,1-3.76-1.47,9.43,9.43,0,0,1-2.49-4A16.9,16.9,0,0,1,0,473c0-3.39.55-5.94,1.63-7.66a4.86,4.86,0,0,1,4.25-2.58,3.85,3.85,0,0,1,2.67,1.05,5.68,5.68,0,0,1,1.64,2.87,6.3,6.3,0,0,1,1.7-2.21,3.7,3.7,0,0,1,2.4-.82,4.22,4.22,0,0,1,2.74.89A5.26,5.26,0,0,1,18.65,467a6.49,6.49,0,0,1,2.56-2.43,7.51,7.51,0,0,1,3.54-.82,6.73,6.73,0,0,1,3.89,1.16,7.62,7.62,0,0,1,2.68,3.24,11.37,11.37,0,0,1,1,4.72,11.15,11.15,0,0,1-.89,4.54q4.54,1.25,4.54,6.28l-3.11.8c0-2.91-.82-4.67-2.45-5.3a7.24,7.24,0,0,1-2.45,2.07,7.11,7.11,0,0,1-7-.42,7.65,7.65,0,0,1-2.68-3.25,11.18,11.18,0,0,1-.95-4.72,13,13,0,0,1,.4-3.43,3.58,3.58,0,0,0-1-1.91,2.66,2.66,0,0,0-1.83-.58,2.14,2.14,0,0,0-1.78.8,3.44,3.44,0,0,0-.62,2.14v7.39A7.71,7.71,0,0,1,11,482.2Zm-6.93-3.47a3.15,3.15,0,0,0,2.65,2,2.21,2.21,0,0,0,2-1,6.34,6.34,0,0,0,.67-3.4v-6a5.7,5.7,0,0,0-.74-3.16,2.29,2.29,0,0,0-2-1.12,2.94,2.94,0,0,0-2.65,1.87,12.34,12.34,0,0,0-1,5.48A11.13,11.13,0,0,0,4.07,478.73Zm24-9.75a4.36,4.36,0,0,0-6.68,0,6.45,6.45,0,0,0,0,7.74,4.36,4.36,0,0,0,6.68,0,6.45,6.45,0,0,0,0-7.74Z"/><path class="cls-1" d="M5.83,497.73a11.06,11.06,0,0,1-4.51-2.89A6.3,6.3,0,0,1,0,490.7a7.74,7.74,0,0,1,.45-2.83,5.82,5.82,0,0,1,1.42-2.07l3,1.25a4.19,4.19,0,0,0-1.78,3.61A3.63,3.63,0,0,0,3.9,493a6.33,6.33,0,0,0,2.82,1.76l2.9,1.15,22.21-9.3v4.05l-14.51,5.57-4,1.37,4.4,1.61,14.07,5.21v3.82Z"/><path class="cls-1" d="M36.59,541.62a14.91,14.91,0,0,1-6.37,6.08,20.33,20.33,0,0,1-9.08,2,17.54,17.54,0,0,1-6.27-1,9.16,9.16,0,0,1-4.1-2.87,6.82,6.82,0,0,1-1.42-4.29A4.9,4.9,0,0,1,10.53,538a5.7,5.7,0,0,1,2.91-1.65,8.28,8.28,0,0,1-2.85-3.23,10.2,10.2,0,0,1-1-4.65,7,7,0,0,1,1.09-3.82,7.64,7.64,0,0,1,3.14-2.76,10.55,10.55,0,0,1,4.81-1,12.62,12.62,0,0,1,6.21,1.47,10.62,10.62,0,0,1,4.05,3.83,9.63,9.63,0,0,1,1.4,5c0,3.45-1.29,5.67-3.87,6.68l3.6.89V541l-13.84-1.74a9.08,9.08,0,0,0-1,0q-3.29,0-3.29,2.8a4,4,0,0,0,2.36,3.65,15.29,15.29,0,0,0,6.94,1.24,17.09,17.09,0,0,0,7.9-1.73A12.55,12.55,0,0,0,34.39,540a17.11,17.11,0,0,0,1.93-8.45,18.17,18.17,0,0,0-2.07-8.89,14.12,14.12,0,0,0-5.85-5.76,18.82,18.82,0,0,0-8.9-2,17.1,17.1,0,0,0-8.48,2,14,14,0,0,0-5.57,5.59,16.48,16.48,0,0,0-1.93,8,16.81,16.81,0,0,0,.76,5.59,16.11,16.11,0,0,0,2.13,4l-2,1.55a21,21,0,0,1-2.58-4.83,18.81,18.81,0,0,1-.89-6.34,20,20,0,0,1,2.31-9.77,16.25,16.25,0,0,1,6.55-6.52,20,20,0,0,1,9.75-2.31,20.69,20.69,0,0,1,10.12,2.42,17,17,0,0,1,6.88,6.88A21.12,21.12,0,0,1,39,531.52,20,20,0,0,1,36.59,541.62ZM25.28,526a9.74,9.74,0,0,0-6.49-2A7.36,7.36,0,0,0,14,525.46a4.94,4.94,0,0,0-1.74,4,7,7,0,0,0,1.69,4.67,7.22,7.22,0,0,0,4.81,2.41l2.18.27c.6.06,1,.09,1.33.09a5.6,5.6,0,0,0,3.94-1.32,5.33,5.33,0,0,0,1.45-4.16A6.76,6.76,0,0,0,25.28,526Z"/><path class="cls-1" d="M5.83,565.39a11.07,11.07,0,0,1-4.51-2.9A6.29,6.29,0,0,1,0,558.35a7.68,7.68,0,0,1,.45-2.82,5.65,5.65,0,0,1,1.42-2.07l3,1.25a4.17,4.17,0,0,0-1.78,3.6,3.63,3.63,0,0,0,.78,2.29,6.25,6.25,0,0,0,2.82,1.76l2.9,1.16,22.21-9.3v4l-14.51,5.56-4,1.38,4.4,1.6L31.83,572v3.83Z"/><path class="cls-1" d="M12.38,600.19,9.57,600a7.79,7.79,0,0,1-.44-2.67,4.48,4.48,0,0,1,.75-2.74,3.72,3.72,0,0,1,2.54-1.27,6.67,6.67,0,0,1-2.43-3,10.4,10.4,0,0,1-.86-4.16,9.08,9.08,0,0,1,1.53-5.43,5.1,5.1,0,0,1,4.43-2.14,5.54,5.54,0,0,1,4.38,2.22A13.44,13.44,0,0,1,22,587.24l1,5.92h1.25a4.73,4.73,0,0,0,3.56-1.38A5.28,5.28,0,0,0,29.15,588a6.47,6.47,0,0,0-4.22-6.36L26.84,579a7.49,7.49,0,0,1,4,3.32A10.71,10.71,0,0,1,32.27,588a10,10,0,0,1-1.91,6.37,6.81,6.81,0,0,1-5.66,2.4H13.76a1.64,1.64,0,0,0-1.21.4,1.81,1.81,0,0,0-.4,1.29A7.18,7.18,0,0,0,12.38,600.19Zm1.2-9.06a4,4,0,0,0,3.47,2h3.07l-.94-5a11.67,11.67,0,0,0-1.53-4.45,3,3,0,0,0-2.56-1.47A2.41,2.41,0,0,0,13,583.32a5.24,5.24,0,0,0-.74,3A8.57,8.57,0,0,0,13.58,591.13Z"/><path class="cls-1" d="M30.09,622.4a8,8,0,0,1-6.27,2.45H9.57v-3.56h13q3.46,0,5-1.49a5.26,5.26,0,0,0,1.55-4,7.27,7.27,0,0,0-.79-3.31,6.29,6.29,0,0,0-2.56-2.58,8.85,8.85,0,0,0-4.43-1H9.57v-3.56H42.06v3.56H28.49a7.1,7.1,0,0,1,2.85,3,9.51,9.51,0,0,1,.93,4.25A9,9,0,0,1,30.09,622.4Z"/><path class="cls-1" d="M29.2,650.2q-3.07,2.87-8.5,2.87t-8.5-2.87a11.7,11.7,0,0,1,0-15.8c2.05-1.92,4.88-2.87,8.5-2.87s6.45,1,8.5,2.87a11.7,11.7,0,0,1,0,15.8ZM26.93,637a9.39,9.39,0,0,0-6.23-1.91A9.39,9.39,0,0,0,14.47,637a7.31,7.31,0,0,0,0,10.59,9.34,9.34,0,0,0,6.23,1.92,9.34,9.34,0,0,0,6.23-1.92,7.31,7.31,0,0,0,0-10.59Z"/><path class="cls-1" d="M29.2,677.26c-2.05,1.92-4.88,2.87-8.5,2.87s-6.45-1-8.5-2.87a11.7,11.7,0,0,1,0-15.8q3.08-2.87,8.5-2.87t8.5,2.87a11.7,11.7,0,0,1,0,15.8Zm-2.27-13.2a9.39,9.39,0,0,0-6.23-1.91,9.39,9.39,0,0,0-6.23,1.91,7.32,7.32,0,0,0,0,10.6,9.39,9.39,0,0,0,6.23,1.91,9.39,9.39,0,0,0,6.23-1.91,7.32,7.32,0,0,0,0-10.6Z"/><path class="cls-1" d="M14.11,690a2.8,2.8,0,0,1-2.09.81,3,3,0,0,1-2.09-5A2.83,2.83,0,0,1,12,685a3,3,0,0,1,2.09,5Z"/><path class="cls-1" d="M36.83,697.82a2.62,2.62,0,0,1,1.94-.73,2.59,2.59,0,0,1,1.93.73,2.91,2.91,0,0,1,0,3.88,2.59,2.59,0,0,1-1.93.73,2.62,2.62,0,0,1-1.94-.73,2.94,2.94,0,0,1,0-3.88ZM9.57,701.54V698H31.83v3.56Z"/><path class="cls-1" d="M19.36,728.74V712a8.07,8.07,0,0,0-5.25,2.25,6.94,6.94,0,0,0-1.87,5,8.67,8.67,0,0,0,.85,4.07,4.37,4.37,0,0,0,2.45,2.21l-1.56,3a9.23,9.23,0,0,1-3.61-3.56,11.6,11.6,0,0,1-1.24-5.7,10.28,10.28,0,0,1,3.07-7.9q3.08-2.87,8.5-2.87t8.5,2.74q3.07,2.73,3.07,7.76a10.17,10.17,0,0,1-1.38,5.39,9,9,0,0,1-3.74,3.43,11.84,11.84,0,0,1-5.29,1.15A19.09,19.09,0,0,1,19.36,728.74Zm8.06-14.54a8,8,0,0,0-4.9-2.2v13.49a8.14,8.14,0,0,0,4.88-2,6,6,0,0,0,1.75-4.5A6.53,6.53,0,0,0,27.42,714.2Z"/><line class="cls-2" x1="20.7" x2="20.7" y2="247.96"/></g></g></svg>